<svg xmlns="http://www.w3.org/2000/svg" xmlns:xlink="http://www.w3.org/1999/xlink" width="1080" zoomAndPan="magnify" viewBox="0 0 810 809.999993" height="1080" preserveAspectRatio="xMidYMid meet" version="1.0"><path fill="#ffffff" d="M 670.089844 81 L 139.910156 81 C 107.363281 81 81 107.363281 81 139.910156 L 81 670.089844 C 81 702.636719 107.363281 729 139.910156 729 L 670.089844 729 C 702.636719 729 729 702.636719 729 670.089844 L 729 139.910156 C 729 107.363281 702.609375 81 670.089844 81 Z M 631.476562 360.050781 C 627.648438 360.40625 623.789062 360.640625 619.898438 360.640625 C 575.867188 360.640625 537.164062 338.019531 514.628906 303.765625 C 514.628906 393.570312 514.628906 495.777344 514.628906 497.488281 C 514.628906 576.574219 450.507812 640.664062 371.453125 640.664062 C 292.394531 640.636719 228.273438 576.515625 228.273438 497.457031 C 228.273438 418.371094 292.394531 354.277344 371.453125 354.277344 C 374.457031 354.277344 377.371094 354.542969 380.289062 354.722656 L 380.289062 425.292969 C 377.34375 424.941406 374.484375 424.410156 371.453125 424.410156 C 331.097656 424.410156 298.375 457.132812 298.375 497.488281 C 298.375 537.839844 331.070312 570.5625 371.453125 570.5625 C 411.832031 570.5625 447.472656 538.753906 447.472656 498.398438 C 447.472656 496.78125 448.179688 169.394531 448.179688 169.394531 L 515.601562 169.394531 C 521.933594 229.6875 570.621094 277.285156 631.476562 281.644531 Z M 631.476562 360.050781 " fill-opacity="1" fill-rule="nonzero"/></svg>