<svg xmlns="http://www.w3.org/2000/svg" xmlns:xlink="http://www.w3.org/1999/xlink" width="1080" zoomAndPan="magnify" viewBox="0 0 810 809.999993" height="1080" preserveAspectRatio="xMidYMid meet" version="1.0"><defs><clipPath id="8d6b0fca22"><path d="M 219.636719 122 L 348 122 L 348 253 L 219.636719 253 Z M 219.636719 122 " clip-rule="nonzero"/></clipPath><clipPath id="31dac3bd6e"><path d="M 456 157 L 589.386719 157 L 589.386719 284 L 456 284 Z M 456 157 " clip-rule="nonzero"/></clipPath></defs><path fill="#000000" d="M 261.585938 184.992188 C 261.664062 178.972656 261.847656 165.925781 261.972656 163.902344 C 262.449219 156.191406 265.667969 148.007812 265.433594 140.472656 C 265.34375 137.644531 264.359375 134.984375 263.175781 132.386719 C 262.765625 131.484375 262.328125 130.585938 262.019531 129.671875 C 261.863281 129.199219 261.667969 128.726562 261.824219 128.199219 C 262.894531 124.628906 266 121.488281 267.859375 118.28125 C 272.960938 109.480469 278.046875 100.390625 282.257812 91.136719 C 283.699219 87.972656 282.300781 84.238281 279.140625 82.800781 C 275.980469 81.363281 272.25 82.757812 270.8125 85.917969 C 266.765625 94.800781 261.875 103.519531 256.976562 111.96875 C 254.648438 115.984375 251.105469 120.125 249.769531 124.601562 C 248.722656 128.117188 249.199219 131.335938 250.375 134.457031 C 250.835938 135.683594 251.414062 136.890625 251.957031 138.109375 C 252.359375 139.011719 252.828125 139.886719 252.859375 140.867188 C 253.082031 148.03125 249.867188 155.792969 249.414062 163.125 C 249.253906 165.738281 248.378906 181.339844 248.882812 187.933594 C 249.078125 190.472656 249.660156 192.257812 250.101562 193.070312 C 250.890625 194.519531 251.933594 195.332031 252.851562 195.820312 C 256.03125 197.511719 262.746094 197.957031 271.011719 196.929688 C 286.125 195.054688 307.730469 189.308594 315.570312 189.058594 C 321.210938 188.878906 326.609375 190.273438 332.054688 191.402344 C 338.722656 192.789062 345.445312 193.84375 352.539062 192.699219 C 357.984375 191.820312 363.429688 189.070312 368.917969 186.835938 C 372.648438 185.320312 376.386719 183.917969 380.296875 185.003906 C 383.644531 185.929688 387.113281 183.964844 388.042969 180.617188 C 388.96875 177.269531 387.003906 173.800781 383.660156 172.875 C 376.996094 171.027344 370.519531 172.597656 364.171875 175.179688 C 359.582031 177.050781 355.09375 179.539062 350.535156 180.273438 C 345.019531 181.160156 339.800781 180.160156 334.613281 179.082031 C 328.199219 177.75 321.816406 176.269531 315.167969 176.480469 C 307.128906 176.738281 284.957031 182.519531 269.460938 184.441406 C 266.511719 184.808594 263.832031 185.027344 261.605469 184.992188 Z M 261.585938 184.992188 " fill-opacity="1" fill-rule="evenodd"/><path fill="#000000" d="M 339.976562 160.953125 C 345.125 160.855469 350.601562 161.28125 352.296875 161.496094 C 363.535156 162.9375 371.511719 170.589844 378.496094 178.636719 C 380.769531 181.257812 384.746094 181.539062 387.371094 179.261719 C 389.992188 176.984375 390.269531 173.003906 387.992188 170.382812 C 379.015625 160.039062 368.339844 150.867188 353.894531 149.015625 C 350.535156 148.582031 335.285156 147.800781 328.640625 149.699219 C 323.921875 151.046875 321.804688 154.109375 321.378906 156.6875 C 321.097656 158.398438 321.304688 160.398438 322.75 162.550781 C 323.84375 164.175781 326.375 166.496094 331.332031 169.03125 C 334.425781 170.609375 338.21875 169.378906 339.796875 166.285156 C 340.679688 164.558594 340.683594 162.609375 339.976562 160.953125 Z M 339.976562 160.953125 " fill-opacity="1" fill-rule="evenodd"/><path fill="#000000" d="M 388.703125 169.109375 C 388.703125 152.703125 382.726562 144.605469 373.898438 137.90625 C 368.890625 134.101562 362.773438 130.839844 356.269531 126.417969 C 352.097656 123.585938 320.21875 100.320312 307.878906 92.652344 C 299.640625 87.535156 288.210938 86.429688 279.277344 82.417969 C 276.113281 81 272.386719 82.417969 270.964844 85.585938 C 269.542969 88.753906 270.957031 92.480469 274.128906 93.902344 C 282.570312 97.691406 293.457031 98.503906 301.238281 103.34375 C 313.472656 110.941406 345.066406 134.019531 349.199219 136.828125 C 354.03125 140.109375 358.648438 142.746094 362.746094 145.445312 C 370.546875 150.578125 376.121094 155.957031 376.121094 169.109375 C 376.121094 172.582031 378.941406 175.402344 382.414062 175.402344 C 385.886719 175.402344 388.703125 172.582031 388.703125 169.109375 Z M 388.703125 169.109375 " fill-opacity="1" fill-rule="evenodd"/><path fill="#000000" d="M 419.066406 164.183594 C 424.742188 158.949219 428.238281 153.21875 431.59375 147.476562 C 435.65625 140.523438 439.433594 133.5 449.046875 128.199219 C 466.078125 118.8125 490.5 113.144531 509.265625 105.136719 C 516.175781 102.1875 525.160156 99.171875 530.589844 93.742188 C 533.046875 91.285156 533.046875 87.300781 530.59375 84.84375 C 528.140625 82.386719 524.152344 82.386719 521.695312 84.839844 C 517.332031 89.207031 509.882812 91.1875 504.328125 93.558594 C 485.195312 101.722656 460.335938 107.605469 442.976562 117.175781 C 432.757812 122.808594 427.53125 129.800781 423.09375 137.128906 C 419.460938 143.125 416.515625 149.414062 410.539062 154.929688 C 407.984375 157.285156 407.824219 161.269531 410.175781 163.820312 C 412.527344 166.375 416.511719 166.535156 419.066406 164.183594 Z M 419.066406 164.183594 " fill-opacity="1" fill-rule="evenodd"/><path fill="#000000" d="M 457.710938 146.621094 C 456.878906 148.550781 457.035156 150.859375 458.328125 152.707031 C 460.3125 155.558594 464.234375 156.257812 467.082031 154.273438 C 468.691406 153.148438 470.597656 150.902344 471.929688 148.21875 C 473.222656 145.613281 473.957031 142.660156 473.867188 140.324219 C 473.746094 137.199219 472.40625 134.765625 470.21875 133.203125 C 468.492188 131.972656 465.890625 131.023438 462.011719 131.863281 C 450.566406 134.332031 419.453125 152.875 410.46875 161.160156 C 407.917969 163.511719 407.753906 167.496094 410.109375 170.050781 C 412.460938 172.605469 416.441406 172.769531 418.996094 170.414062 C 425.542969 164.378906 445.226562 152.066406 457.710938 146.621094 Z M 457.710938 146.621094 " fill-opacity="1" fill-rule="evenodd"/><path fill="#000000" d="M 419.382812 180.550781 C 426.503906 176.980469 436.019531 175.132812 443.992188 175.789062 C 447.449219 176.070312 450.492188 173.492188 450.773438 170.03125 C 451.058594 166.566406 448.480469 163.53125 445.019531 163.246094 C 434.886719 162.414062 422.792969 164.761719 413.746094 169.300781 C 410.640625 170.855469 409.382812 174.640625 410.941406 177.746094 C 412.496094 180.851562 416.28125 182.109375 419.382812 180.550781 Z M 419.382812 180.550781 " fill-opacity="1" fill-rule="evenodd"/><path fill="#000000" d="M 557.238281 203.109375 C 555.820312 203.011719 554.179688 202.855469 552.761719 202.617188 C 543.84375 201.121094 532.980469 198.367188 529.011719 198.488281 C 518.695312 198.804688 506.671875 201.433594 494.757812 203.371094 C 484.046875 205.109375 473.4375 206.359375 464.539062 204.023438 C 459.808594 202.777344 455.746094 200.070312 451.832031 197.097656 C 447.152344 193.542969 442.695312 189.585938 437.976562 186.445312 C 432.679688 182.917969 424.371094 180.941406 418.511719 178.625 C 415.28125 177.351562 411.625 178.9375 410.351562 182.167969 C 409.074219 185.394531 410.660156 189.054688 413.890625 190.332031 C 419.011719 192.355469 426.371094 193.835938 431.003906 196.921875 C 440.789062 203.4375 449.613281 213.109375 461.339844 216.195312 C 471.773438 218.9375 484.21875 217.832031 496.773438 215.792969 C 508.125 213.949219 519.570312 211.371094 529.398438 211.066406 C 533.640625 210.9375 546.453125 214.679688 555.050781 215.660156 C 558.625 216.066406 561.667969 216.007812 563.707031 215.511719 C 565.613281 215.050781 567.042969 214.210938 568.058594 213.25 C 568.636719 212.703125 569.238281 211.9375 569.652344 210.871094 C 570 209.972656 570.136719 207.335938 570.09375 206.6875 C 569.417969 196.488281 568.433594 183.796875 565.285156 174.148438 C 561.785156 163.433594 561.492188 152.320312 558.390625 141.628906 C 557.789062 139.558594 556.796875 137.753906 555.625 136.054688 C 554.640625 134.632812 553.4375 133.355469 552.710938 131.75 C 550.910156 127.777344 550.253906 123.402344 548.671875 119.355469 C 546.988281 115.046875 543.773438 111.609375 541.625 107.5625 C 538.0625 100.851562 535.925781 93.171875 531.703125 86.851562 C 529.769531 83.964844 525.859375 83.191406 522.976562 85.121094 C 520.089844 87.050781 519.3125 90.964844 521.242188 93.847656 C 525.234375 99.820312 527.148438 107.121094 530.511719 113.464844 C 532.4375 117.089844 535.449219 120.082031 536.957031 123.9375 C 538.621094 128.191406 539.359375 132.769531 541.25 136.941406 C 542.019531 138.644531 543.054688 140.167969 544.144531 141.648438 C 544.953125 142.757812 545.910156 143.769531 546.308594 145.136719 C 549.453125 155.964844 549.785156 167.207031 553.324219 178.054688 C 555.734375 185.441406 556.644531 194.808594 557.238281 203.109375 Z M 557.238281 203.109375 " fill-opacity="1" fill-rule="evenodd"/><path fill="#000000" d="M 383.78125 159.660156 C 381.519531 160.601562 379.925781 162.824219 379.90625 165.421875 C 379.890625 167.375 378.039062 179.960938 377.996094 184.351562 C 377.957031 188.375 378.914062 192.5 379.457031 196.476562 C 379.730469 198.460938 379.984375 200.457031 380.148438 202.453125 C 380.320312 204.582031 380.835938 207.230469 382.117188 209.027344 C 383.207031 210.558594 384.730469 211.550781 386.585938 211.976562 C 388.085938 212.324219 390.066406 212.097656 391.332031 211.882812 C 393.082031 211.582031 394.617188 210.871094 396.035156 209.9375 C 396.515625 209.621094 397.289062 209.078125 397.742188 208.753906 C 400.019531 209.257812 402.613281 210.867188 405.140625 211.453125 C 409.117188 212.382812 412.933594 211.941406 416.339844 209.03125 C 417.84375 207.746094 419.035156 205.761719 419.621094 203.257812 C 420.265625 200.511719 420.097656 196.796875 420.21875 194.8125 C 420.671875 187.265625 419.117188 179.710938 419.175781 172.15625 C 419.21875 166.621094 418.050781 159.714844 413.375 155.898438 C 411.492188 154.363281 409.300781 153.765625 406.949219 153.867188 C 405.589844 153.925781 404.128906 154.378906 402.898438 154.535156 C 400.261719 154.867188 397.675781 155.21875 395.128906 156.011719 C 394.089844 156.332031 393.160156 156.699219 392.269531 157.035156 C 391.613281 157.277344 391.050781 157.660156 390.234375 157.457031 C 387.765625 156.839844 385.265625 157.777344 383.78125 159.660156 Z M 406.058594 166.738281 C 405.484375 166.855469 404.867188 166.96875 404.46875 167.019531 C 402.570312 167.261719 400.695312 167.460938 398.859375 168.03125 C 396.304688 168.824219 394.253906 169.667969 392.035156 169.960938 C 391.484375 174.613281 390.605469 181.464844 390.578125 184.472656 C 390.542969 187.894531 391.460938 191.390625 391.925781 194.769531 C 392.042969 195.628906 392.15625 196.488281 392.257812 197.351562 C 392.359375 197.300781 392.460938 197.246094 392.5625 197.195312 C 394.335938 196.320312 396.265625 195.867188 398.523438 196.132812 C 400.75 196.394531 403.300781 197.453125 405.863281 198.472656 C 406.28125 198.640625 406.878906 198.820312 407.40625 198.96875 C 407.484375 197.382812 407.601562 195.03125 407.660156 194.054688 C 408.101562 186.726562 406.539062 179.398438 406.59375 172.0625 C 406.605469 170.621094 406.589844 168.96875 406.230469 167.429688 C 406.179688 167.199219 406.125 166.964844 406.058594 166.738281 Z M 406.058594 166.738281 " fill-opacity="1" fill-rule="evenodd"/><path fill="#000000" d="M 484.519531 674.484375 C 473.074219 640.199219 458.164062 606.851562 448.433594 572.148438 C 438.535156 536.871094 426.800781 501.621094 418.558594 465.945312 C 414.09375 446.605469 412.527344 426.515625 408.96875 406.992188 C 396.824219 340.378906 384.78125 274.628906 416.777344 210.789062 C 418.332031 207.683594 417.078125 203.898438 413.972656 202.34375 C 410.871094 200.785156 407.085938 202.042969 405.53125 205.148438 C 372.242188 271.570312 383.957031 339.941406 396.589844 409.253906 C 400.183594 428.964844 401.789062 449.25 406.300781 468.777344 C 414.585938 504.644531 426.371094 540.082031 436.320312 575.550781 C 447.058594 613.839844 464.066406 650.488281 475.835938 688.558594 C 475.738281 688.242188 475.625 687.527344 475.625 687.527344 C 475.625 687.527344 476.933594 691.617188 478.652344 692.730469 C 479.765625 693.445312 482.804688 694.957031 486.203125 692.277344 C 487.480469 691.269531 492.296875 685.195312 492.726562 684.617188 C 495.363281 681.078125 497.949219 677.238281 499.859375 673.257812 C 506.589844 659.261719 510.277344 643.273438 515.390625 628.582031 C 526.773438 595.886719 536.996094 563.558594 545.914062 530.082031 C 553.144531 502.929688 564.839844 475.484375 566.476562 447.203125 C 567.445312 430.5 561.101562 412.585938 556.417969 396.78125 C 544.976562 358.195312 529.765625 321.136719 509.808594 286 C 503.902344 275.605469 494.894531 266.148438 487.964844 256.332031 C 473.835938 236.320312 456.414062 209.417969 442.019531 189.597656 C 439.976562 186.789062 436.042969 186.164062 433.230469 188.207031 C 430.421875 190.246094 429.800781 194.183594 431.839844 196.996094 C 446.207031 216.773438 463.589844 243.621094 477.6875 263.59375 C 484.386719 273.078125 493.164062 282.171875 498.871094 292.21875 C 518.351562 326.519531 533.1875 362.695312 544.355469 400.363281 C 548.648438 414.835938 554.804688 431.175781 553.917969 446.476562 C 552.328125 473.917969 540.773438 500.496094 533.757812 526.839844 C 524.921875 560.011719 514.785156 592.046875 503.511719 624.441406 C 498.550781 638.695312 495.046875 654.230469 488.523438 667.804688 C 487.414062 670.109375 486.011719 672.347656 484.519531 674.484375 Z M 484.519531 674.484375 " fill-opacity="1" fill-rule="evenodd"/><path fill="#000000" d="M 474.34375 378.703125 C 472.667969 371.84375 471.414062 365.039062 469.769531 360.039062 C 468.683594 356.738281 465.125 354.941406 461.828125 356.027344 C 458.527344 357.113281 456.734375 360.675781 457.820312 363.972656 C 460.269531 371.414062 461.867188 382.804688 465.230469 392.5 C 467.933594 400.285156 471.820312 407.007812 477.363281 410.960938 C 479.390625 412.40625 481.179688 412.347656 482.480469 412.082031 C 484 411.777344 485.347656 411 486.394531 409.585938 C 486.929688 408.855469 487.539062 407.703125 487.695312 406.105469 C 487.761719 405.433594 487.652344 403.574219 487.632812 403.253906 C 487.734375 401.265625 487.851562 399.285156 487.816406 397.292969 C 487.722656 391.761719 487.578125 386.222656 487.136719 380.707031 C 485.839844 364.570312 483.757812 348.679688 481.835938 332.636719 C 475.480469 279.605469 457.804688 228.382812 421.1875 188.640625 C 418.835938 186.085938 414.851562 185.925781 412.300781 188.277344 C 409.746094 190.632812 409.585938 194.617188 411.9375 197.171875 C 446.738281 234.945312 463.304688 283.730469 469.347656 334.136719 C 471.128906 349.015625 473.054688 363.765625 474.34375 378.703125 Z M 474.34375 378.703125 " fill-opacity="1" fill-rule="evenodd"/><path fill="#000000" d="M 422.464844 280.289062 C 421.890625 277.105469 421.945312 273.808594 421.785156 270.546875 C 420.71875 248.761719 424.746094 226.550781 424.746094 204.722656 C 424.746094 201.25 421.925781 198.429688 418.453125 198.429688 C 414.980469 198.429688 412.164062 201.25 412.164062 204.722656 C 412.164062 226.757812 408.140625 249.175781 409.222656 271.164062 C 409.527344 277.386719 409.632812 283.632812 412.132812 289.464844 C 413.085938 291.699219 414.320312 293.945312 416.019531 295.707031 C 418.3125 298.082031 420.734375 298.675781 422.925781 298.511719 C 425.375 298.328125 428.179688 296.882812 430.355469 293.597656 C 434.171875 287.835938 436.914062 273.855469 436.804688 269.855469 C 436.707031 266.382812 433.8125 263.640625 430.339844 263.738281 C 426.871094 263.835938 424.132812 266.734375 424.230469 270.203125 C 424.277344 271.914062 423.605469 276.273438 422.464844 280.289062 Z M 422.464844 280.289062 " fill-opacity="1" fill-rule="evenodd"/><path fill="#000000" d="M 380.160156 191.148438 C 364.421875 204.820312 316.269531 264.230469 318.308594 394.066406 C 318.363281 397.535156 321.226562 400.3125 324.699219 400.257812 C 328.167969 400.203125 330.941406 397.339844 330.886719 393.867188 C 328.949219 270.480469 373.449219 213.644531 388.410156 200.648438 C 391.03125 198.371094 391.3125 194.394531 389.035156 191.773438 C 386.757812 189.152344 382.78125 188.871094 380.160156 191.148438 Z M 380.160156 191.148438 " fill-opacity="1" fill-rule="evenodd"/><path fill="#000000" d="M 383.914062 207.503906 C 386.996094 221.4375 382.609375 279.613281 383.785156 293.707031 C 384.074219 297.167969 387.121094 299.742188 390.578125 299.457031 C 394.039062 299.164062 396.613281 296.121094 396.324219 292.660156 C 395.125 278.292969 399.339844 218.988281 396.199219 204.785156 C 395.445312 201.390625 392.085938 199.25 388.695312 200 C 385.304688 200.75 383.164062 204.113281 383.914062 207.503906 Z M 383.914062 207.503906 " fill-opacity="1" fill-rule="evenodd"/><path fill="#000000" d="M 272.570312 701.816406 C 270.089844 689.167969 267.707031 676.382812 266.566406 663.773438 C 265.097656 647.554688 265.953125 630.671875 262.910156 614.648438 C 257.867188 588.054688 244.144531 561.574219 243.078125 534.257812 C 242.371094 516.203125 250.046875 495.761719 252.304688 477.753906 C 264.023438 384.160156 304.285156 247.617188 383.289062 188.671875 C 386.070312 186.597656 386.648438 182.652344 384.570312 179.867188 C 382.492188 177.082031 378.550781 176.507812 375.765625 178.585938 C 294.320312 239.347656 251.902344 379.703125 239.820312 476.1875 C 237.484375 494.839844 229.773438 516.050781 230.503906 534.75 C 231.597656 562.675781 245.390625 589.808594 250.550781 616.996094 C 253.515625 632.621094 252.605469 649.089844 254.035156 664.910156 C 255.785156 684.25 260.367188 704 263.867188 723.078125 C 264.410156 726.035156 266.136719 727.136719 267.128906 727.683594 C 269.046875 728.734375 271.269531 728.984375 273.664062 727.445312 C 274.175781 727.117188 274.8125 726.605469 275.410156 725.800781 C 275.917969 725.125 276.835938 722.890625 277.316406 721.957031 C 278.824219 719.035156 280.359375 716.140625 281.679688 713.128906 C 285.820312 703.691406 287.867188 693.460938 291.027344 683.683594 C 299.300781 658.082031 314.710938 635.339844 323.867188 609.953125 C 334.519531 580.417969 344.9375 550.75 356.648438 521.59375 C 375.648438 474.28125 396.496094 416.941406 401.429688 365.523438 C 401.761719 362.066406 399.222656 358.988281 395.769531 358.65625 C 392.3125 358.324219 389.238281 360.863281 388.90625 364.320312 C 384.082031 414.601562 363.554688 470.636719 344.972656 516.902344 C 333.207031 546.195312 322.738281 576.003906 312.035156 605.679688 C 302.828125 631.199219 287.367188 654.082031 279.058594 679.8125 C 276.714844 687.070312 275.046875 694.59375 272.570312 701.816406 Z M 272.570312 701.816406 " fill-opacity="1" fill-rule="evenodd"/><g clip-path="url(#8d6b0fca22)"><path fill="#000000" d="M 237.71875 239.640625 C 237.878906 238.570312 238.183594 237.417969 238.429688 236.25 C 239.265625 232.300781 240.140625 228.265625 239.914062 225.003906 C 237.984375 197.175781 232.929688 169.695312 232.3125 141.710938 C 232.296875 140.980469 232.597656 137.304688 232.804688 134.925781 C 235.128906 134.894531 237.84375 135.347656 240.597656 135.75 C 246.085938 136.554688 251.6875 137.484375 255.910156 137.175781 C 259.371094 136.917969 261.976562 133.902344 261.722656 130.4375 C 261.472656 126.972656 258.453125 124.367188 254.992188 124.621094 C 250.707031 124.933594 244.765625 123.542969 239.304688 122.871094 C 234.410156 122.269531 229.8125 122.210938 226.363281 123.238281 C 224.527344 123.78125 222.363281 125.320312 221.191406 128.46875 C 219.847656 132.09375 219.695312 140.304688 219.734375 141.988281 C 220.355469 170.171875 225.421875 197.847656 227.363281 225.871094 C 227.558594 228.738281 226.324219 232.378906 225.691406 235.792969 C 225.011719 239.488281 224.867188 243.007812 225.683594 245.84375 C 226.070312 247.164062 227.101562 249 229.449219 250.222656 C 231.1875 251.125 235.132812 251.972656 236.035156 252.1875 C 239.996094 253.140625 250.714844 251.820312 264.105469 248.824219 C 292.417969 242.488281 334.164062 229.847656 343.441406 226.929688 C 346.753906 225.890625 348.601562 222.355469 347.558594 219.039062 C 346.519531 215.726562 342.984375 213.882812 339.671875 214.925781 C 330.511719 217.804688 289.308594 230.289062 261.359375 236.542969 C 254.394531 238.101562 248.28125 239.269531 243.761719 239.769531 C 241.605469 240.011719 239.960938 240.1875 238.980469 239.949219 Z M 237.71875 239.640625 " fill-opacity="1" fill-rule="evenodd"/></g><g clip-path="url(#31dac3bd6e)"><path fill="#000000" d="M 576.414062 170.882812 C 576.570312 171.953125 576.714844 173.035156 576.710938 173.300781 C 576.046875 195.597656 563.246094 218.617188 558.75 240.597656 C 557.777344 245.347656 557.785156 255.289062 556.5625 263.679688 C 556.226562 266.007812 555.796875 268.191406 555.15625 270.019531 C 555.046875 270.339844 554.945312 270.644531 554.835938 270.929688 C 551.949219 270.101562 544.875 267.953125 538.71875 265.234375 C 513.0625 253.910156 472.984375 231.222656 467.25 225.269531 C 464.839844 222.765625 460.851562 222.691406 458.355469 225.105469 C 455.851562 227.515625 455.78125 231.5 458.1875 234 C 465.140625 241.214844 519.382812 272.082031 544.316406 281.089844 C 549.460938 282.949219 553.582031 283.882812 556.117188 283.890625 C 558.957031 283.902344 560.921875 282.960938 562.179688 281.890625 C 564.898438 279.5625 567.03125 275.296875 568.21875 269.914062 C 570.175781 261.054688 569.953125 248.597656 571.078125 243.117188 C 575.710938 220.464844 588.601562 196.65625 589.285156 173.675781 C 589.324219 172.265625 588.636719 164.863281 586.773438 161.96875 C 585.054688 159.300781 582.65625 158.242188 580.1875 158.292969 C 573.570312 158.429688 566.984375 157.867188 560.371094 157.867188 C 556.898438 157.867188 554.082031 160.6875 554.082031 164.160156 C 554.082031 167.632812 556.898438 170.453125 560.371094 170.453125 C 565.726562 170.453125 571.0625 170.8125 576.414062 170.882812 Z M 576.414062 170.882812 " fill-opacity="1" fill-rule="evenodd"/></g><path fill="#000000" d="M 473.0625 217.496094 C 491.46875 224.046875 515.410156 237.777344 531.425781 248.785156 C 534.285156 250.753906 538.207031 250.027344 540.171875 247.164062 C 542.136719 244.300781 541.414062 240.378906 538.550781 238.410156 C 521.746094 226.863281 496.59375 212.511719 477.28125 205.636719 C 474.011719 204.472656 470.410156 206.183594 469.246094 209.457031 C 468.082031 212.726562 469.792969 216.328125 473.0625 217.496094 Z M 473.0625 217.496094 " fill-opacity="1" fill-rule="evenodd"/><path fill="#000000" d="M 350.828125 180.695312 C 331.339844 185.007812 308.484375 196.820312 291.242188 206.453125 C 288.207031 208.148438 287.121094 211.984375 288.8125 215.015625 C 290.507812 218.046875 294.339844 219.136719 297.371094 217.441406 C 313.648438 208.351562 335.152344 197.054688 353.546875 192.980469 C 356.9375 192.230469 359.078125 188.871094 358.328125 185.476562 C 357.578125 182.085938 354.214844 179.945312 350.828125 180.695312 Z M 350.828125 180.695312 " fill-opacity="1" fill-rule="evenodd"/></svg>