<svg xmlns="http://www.w3.org/2000/svg" xmlns:xlink="http://www.w3.org/1999/xlink" width="1080" zoomAndPan="magnify" viewBox="0 0 810 809.999993" height="1080" preserveAspectRatio="xMidYMid meet" version="1.0"><defs><clipPath id="90789ba28d"><path d="M 33.140625 153 L 777.140625 153 L 777.140625 657 L 33.140625 657 Z M 33.140625 153 " clip-rule="nonzero"/></clipPath></defs><g clip-path="url(#90789ba28d)"><path fill="#000000" d="M 722.492188 350.207031 L 220.410156 350.207031 C 220.410156 350.207031 326.183594 245.253906 328.976562 241.664062 C 336.230469 232.367188 340.589844 220.703125 340.589844 208.011719 C 340.589844 193.988281 335.289062 181.242188 326.628906 171.515625 L 322.179688 167.074219 C 312.46875 158.417969 299.699219 153.101562 285.667969 153.101562 C 271.242188 153.101562 258.132812 158.734375 248.332031 167.835938 C 248.332031 167.835938 45.75 369.992188 44.71875 371.324219 C 37.550781 380.605469 33.246094 392.175781 33.246094 404.816406 C 33.246094 417.417969 37.550781 429.011719 44.699219 438.273438 C 47.597656 442.023438 250.859375 644.300781 250.859375 644.300781 C 260.285156 651.945312 272.289062 656.53125 285.382812 656.53125 C 315.707031 656.53125 340.304688 631.964844 340.304688 601.65625 C 340.304688 588.359375 335.574219 576.164062 327.710938 566.671875 L 220.410156 459.425781 L 722.492188 459.425781 C 752.675781 459.425781 777.132812 434.964844 777.132812 404.816406 C 777.132812 374.648438 752.675781 350.207031 722.492188 350.207031 " fill-opacity="1" fill-rule="nonzero"/></g></svg>