<svg xmlns="http://www.w3.org/2000/svg" xmlns:xlink="http://www.w3.org/1999/xlink" width="1080" zoomAndPan="magnify" viewBox="0 0 810 809.999993" height="1080" preserveAspectRatio="xMidYMid meet" version="1.0"><path fill="#000000" d="M 627.75 696.601562 C 639.898438 692.550781 648 681.414062 648 668.25 L 648 111.375 C 648 95.175781 634.835938 81 617.625 81 L 192.375 81 C 175.164062 81 162 94.164062 162 111.375 L 162 668.25 C 162 681.414062 170.101562 692.550781 182.25 696.601562 L 182.25 718.875 C 182.25 724.949219 186.300781 729 192.375 729 L 617.625 729 C 623.699219 729 627.75 724.949219 627.75 718.875 Z M 627.75 111.375 L 627.75 668.25 C 627.75 673.3125 623.699219 678.375 617.625 678.375 L 415.125 678.375 L 415.125 101.25 L 617.625 101.25 C 623.699219 101.25 627.75 105.300781 627.75 111.375 Z M 182.25 111.375 C 182.25 106.3125 186.300781 101.25 192.375 101.25 L 394.875 101.25 L 394.875 678.375 L 192.375 678.375 C 187.3125 678.375 182.25 674.324219 182.25 668.25 Z M 202.5 708.75 L 202.5 698.625 L 607.5 698.625 L 607.5 708.75 Z M 202.5 708.75 " fill-opacity="1" fill-rule="nonzero"/><path fill="#000000" d="M 384.75 384.75 C 384.75 385.414062 384.71875 386.074219 384.652344 386.734375 C 384.585938 387.394531 384.492188 388.050781 384.359375 388.699219 C 384.230469 389.351562 384.070312 389.992188 383.878906 390.628906 C 383.683594 391.261719 383.460938 391.886719 383.207031 392.5 C 382.953125 393.113281 382.671875 393.710938 382.359375 394.296875 C 382.046875 394.878906 381.707031 395.449219 381.335938 396 C 380.96875 396.550781 380.574219 397.082031 380.152344 397.597656 C 379.734375 398.109375 379.289062 398.601562 378.820312 399.070312 C 378.351562 399.539062 377.859375 399.984375 377.347656 400.402344 C 376.832031 400.824219 376.300781 401.21875 375.75 401.585938 C 375.199219 401.957031 374.628906 402.296875 374.046875 402.609375 C 373.460938 402.921875 372.863281 403.203125 372.25 403.457031 C 371.636719 403.710938 371.011719 403.933594 370.378906 404.128906 C 369.742188 404.320312 369.101562 404.480469 368.449219 404.609375 C 367.800781 404.742188 367.144531 404.835938 366.484375 404.902344 C 365.824219 404.96875 365.164062 405 364.5 405 C 363.835938 405 363.175781 404.96875 362.515625 404.902344 C 361.855469 404.835938 361.199219 404.742188 360.550781 404.609375 C 359.898438 404.480469 359.257812 404.320312 358.621094 404.128906 C 357.988281 403.933594 357.363281 403.710938 356.75 403.457031 C 356.136719 403.203125 355.539062 402.921875 354.953125 402.609375 C 354.371094 402.296875 353.800781 401.957031 353.25 401.585938 C 352.699219 401.21875 352.167969 400.824219 351.652344 400.402344 C 351.140625 399.984375 350.648438 399.539062 350.179688 399.070312 C 349.710938 398.601562 349.265625 398.109375 348.847656 397.597656 C 348.425781 397.082031 348.03125 396.550781 347.664062 396 C 347.292969 395.449219 346.953125 394.878906 346.640625 394.296875 C 346.328125 393.710938 346.046875 393.113281 345.792969 392.5 C 345.539062 391.886719 345.3125 391.261719 345.121094 390.628906 C 344.929688 389.992188 344.769531 389.351562 344.640625 388.699219 C 344.507812 388.050781 344.414062 387.394531 344.347656 386.734375 C 344.28125 386.074219 344.25 385.414062 344.25 384.75 C 344.25 384.085938 344.28125 383.425781 344.347656 382.765625 C 344.414062 382.105469 344.507812 381.449219 344.640625 380.800781 C 344.769531 380.148438 344.929688 379.507812 345.121094 378.871094 C 345.3125 378.238281 345.539062 377.613281 345.792969 377 C 346.046875 376.386719 346.328125 375.789062 346.640625 375.203125 C 346.953125 374.621094 347.292969 374.050781 347.664062 373.5 C 348.03125 372.949219 348.425781 372.417969 348.847656 371.902344 C 349.265625 371.390625 349.710938 370.898438 350.179688 370.429688 C 350.648438 369.960938 351.140625 369.515625 351.652344 369.097656 C 352.167969 368.675781 352.699219 368.28125 353.25 367.914062 C 353.800781 367.542969 354.371094 367.203125 354.953125 366.890625 C 355.539062 366.578125 356.136719 366.296875 356.75 366.042969 C 357.363281 365.789062 357.988281 365.566406 358.621094 365.371094 C 359.257812 365.179688 359.898438 365.019531 360.550781 364.890625 C 361.199219 364.757812 361.855469 364.664062 362.515625 364.597656 C 363.175781 364.53125 363.835938 364.5 364.5 364.5 C 365.164062 364.5 365.824219 364.53125 366.484375 364.597656 C 367.144531 364.664062 367.800781 364.757812 368.449219 364.890625 C 369.101562 365.019531 369.742188 365.179688 370.378906 365.371094 C 371.011719 365.566406 371.636719 365.789062 372.25 366.042969 C 372.863281 366.296875 373.460938 366.578125 374.046875 366.890625 C 374.628906 367.203125 375.199219 367.542969 375.75 367.914062 C 376.300781 368.28125 376.832031 368.675781 377.347656 369.097656 C 377.859375 369.515625 378.351562 369.960938 378.820312 370.429688 C 379.289062 370.898438 379.734375 371.390625 380.152344 371.902344 C 380.574219 372.417969 380.96875 372.949219 381.335938 373.5 C 381.707031 374.050781 382.046875 374.621094 382.359375 375.203125 C 382.671875 375.789062 382.953125 376.386719 383.207031 377 C 383.460938 377.613281 383.683594 378.238281 383.878906 378.871094 C 384.070312 379.507812 384.230469 380.148438 384.359375 380.800781 C 384.492188 381.449219 384.585938 382.105469 384.652344 382.765625 C 384.71875 383.425781 384.75 384.085938 384.75 384.75 Z M 384.75 384.75 " fill-opacity="1" fill-rule="nonzero"/><path fill="#000000" d="M 465.75 384.75 C 465.75 385.414062 465.71875 386.074219 465.652344 386.734375 C 465.585938 387.394531 465.488281 388.050781 465.359375 388.699219 C 465.230469 389.351562 465.070312 389.992188 464.878906 390.628906 C 464.683594 391.261719 464.460938 391.886719 464.207031 392.5 C 463.953125 393.113281 463.671875 393.710938 463.359375 394.296875 C 463.046875 394.878906 462.707031 395.449219 462.335938 396 C 461.96875 396.550781 461.574219 397.082031 461.152344 397.597656 C 460.734375 398.109375 460.289062 398.601562 459.820312 399.070312 C 459.351562 399.539062 458.859375 399.984375 458.347656 400.402344 C 457.832031 400.824219 457.300781 401.21875 456.75 401.585938 C 456.199219 401.957031 455.628906 402.296875 455.046875 402.609375 C 454.460938 402.921875 453.863281 403.203125 453.25 403.457031 C 452.636719 403.710938 452.011719 403.933594 451.378906 404.128906 C 450.742188 404.320312 450.101562 404.480469 449.449219 404.609375 C 448.800781 404.742188 448.144531 404.835938 447.484375 404.902344 C 446.824219 404.96875 446.164062 405 445.5 405 C 444.835938 405 444.175781 404.96875 443.515625 404.902344 C 442.855469 404.835938 442.199219 404.742188 441.550781 404.609375 C 440.898438 404.480469 440.257812 404.320312 439.621094 404.128906 C 438.988281 403.933594 438.363281 403.710938 437.75 403.457031 C 437.136719 403.203125 436.539062 402.921875 435.953125 402.609375 C 435.371094 402.296875 434.800781 401.957031 434.25 401.585938 C 433.699219 401.21875 433.167969 400.824219 432.652344 400.402344 C 432.140625 399.984375 431.648438 399.539062 431.179688 399.070312 C 430.710938 398.601562 430.265625 398.109375 429.847656 397.597656 C 429.425781 397.082031 429.03125 396.550781 428.664062 396 C 428.292969 395.449219 427.953125 394.878906 427.640625 394.296875 C 427.328125 393.710938 427.046875 393.113281 426.792969 392.5 C 426.539062 391.886719 426.316406 391.261719 426.121094 390.628906 C 425.929688 389.992188 425.769531 389.351562 425.640625 388.699219 C 425.507812 388.050781 425.414062 387.394531 425.347656 386.734375 C 425.28125 386.074219 425.25 385.414062 425.25 384.75 C 425.25 384.085938 425.28125 383.425781 425.347656 382.765625 C 425.414062 382.105469 425.507812 381.449219 425.640625 380.800781 C 425.769531 380.148438 425.929688 379.507812 426.121094 378.871094 C 426.316406 378.238281 426.539062 377.613281 426.792969 377 C 427.046875 376.386719 427.328125 375.789062 427.640625 375.203125 C 427.953125 374.621094 428.292969 374.050781 428.664062 373.5 C 429.03125 372.949219 429.425781 372.417969 429.847656 371.902344 C 430.265625 371.390625 430.710938 370.898438 431.179688 370.429688 C 431.648438 369.960938 432.140625 369.515625 432.652344 369.097656 C 433.167969 368.675781 433.699219 368.28125 434.25 367.914062 C 434.800781 367.542969 435.371094 367.203125 435.953125 366.890625 C 436.539062 366.578125 437.136719 366.296875 437.75 366.042969 C 438.363281 365.789062 438.988281 365.566406 439.621094 365.371094 C 440.257812 365.179688 440.898438 365.019531 441.550781 364.890625 C 442.199219 364.757812 442.855469 364.664062 443.515625 364.597656 C 444.175781 364.53125 444.835938 364.5 445.5 364.5 C 446.164062 364.5 446.824219 364.53125 447.484375 364.597656 C 448.144531 364.664062 448.800781 364.757812 449.449219 364.890625 C 450.101562 365.019531 450.742188 365.179688 451.378906 365.371094 C 452.011719 365.566406 452.636719 365.789062 453.25 366.042969 C 453.863281 366.296875 454.460938 366.578125 455.046875 366.890625 C 455.628906 367.203125 456.199219 367.542969 456.75 367.914062 C 457.300781 368.28125 457.832031 368.675781 458.347656 369.097656 C 458.859375 369.515625 459.351562 369.960938 459.820312 370.429688 C 460.289062 370.898438 460.734375 371.390625 461.152344 371.902344 C 461.574219 372.417969 461.96875 372.949219 462.335938 373.5 C 462.707031 374.050781 463.046875 374.621094 463.359375 375.203125 C 463.671875 375.789062 463.953125 376.386719 464.207031 377 C 464.460938 377.613281 464.683594 378.238281 464.878906 378.871094 C 465.070312 379.507812 465.230469 380.148438 465.359375 380.800781 C 465.488281 381.449219 465.585938 382.105469 465.652344 382.765625 C 465.71875 383.425781 465.75 384.085938 465.75 384.75 Z M 465.75 384.75 " fill-opacity="1" fill-rule="nonzero"/></svg>