<svg xmlns="http://www.w3.org/2000/svg" xmlns:xlink="http://www.w3.org/1999/xlink" width="1080" zoomAndPan="magnify" viewBox="0 0 810 809.999993" height="1080" preserveAspectRatio="xMidYMid meet" version="1.0"><defs><clipPath id="c5e6731429"><path d="M 266 428 L 717.699219 428 L 717.699219 682 L 266 682 Z M 266 428 " clip-rule="nonzero"/></clipPath><clipPath id="4ff2e6d8ce"><path d="M 92.199219 680 L 633 680 L 633 717 L 92.199219 717 Z M 92.199219 680 " clip-rule="nonzero"/></clipPath><clipPath id="0925bacbef"><path d="M 92.199219 680 L 634 680 L 634 717.339844 L 92.199219 717.339844 Z M 92.199219 680 " clip-rule="nonzero"/></clipPath><clipPath id="aecad3d0b8"><path d="M 451 92.589844 L 606 92.589844 L 606 248 L 451 248 Z M 451 92.589844 " clip-rule="nonzero"/></clipPath><clipPath id="276fc32a74"><path d="M 489 92.589844 L 569 92.589844 L 569 248 L 489 248 Z M 489 92.589844 " clip-rule="nonzero"/></clipPath><clipPath id="e549b5e3c8"><path d="M 528 92.589844 L 530 92.589844 L 530 248 L 528 248 Z M 528 92.589844 " clip-rule="nonzero"/></clipPath></defs><path fill="#ffffff" d="M 139.195312 340.078125 C 143.53125 344.605469 148.175781 348.863281 153.101562 352.792969 L 225.285156 405.582031 L 297.46875 352.792969 C 334.269531 323.445312 355.402344 275.765625 349.664062 232.648438 L 333.601562 132.546875 L 225.285156 108.648438 L 116.972656 132.546875 L 100.90625 232.648438 C 95.9375 269.996094 111.128906 310.761719 139.195312 340.078125 " fill-opacity="1" fill-rule="nonzero"/><path fill="#000000" d="M 117.636719 133.175781 L 101.648438 232.769531 C 96.824219 269.050781 111.417969 309.976562 139.738281 339.558594 C 144.074219 344.085938 148.730469 348.339844 153.570312 352.207031 L 225.285156 404.652344 L 297.027344 352.183594 C 333.671875 322.960938 354.535156 274.953125 348.921875 232.75 L 332.9375 133.175781 L 225.285156 109.417969 Z M 225.285156 406.335938 C 225.132812 406.335938 224.976562 406.289062 224.839844 406.1875 L 152.65625 353.402344 C 147.738281 349.476562 143.035156 345.179688 138.652344 340.597656 C 110.019531 310.695312 95.273438 269.292969 100.160156 232.550781 L 116.230469 132.433594 C 116.28125 132.125 116.507812 131.882812 116.8125 131.816406 L 225.125 107.914062 C 225.230469 107.890625 225.339844 107.890625 225.449219 107.914062 L 333.761719 131.816406 C 334.0625 131.882812 334.296875 132.125 334.34375 132.433594 L 350.410156 232.53125 C 353.234375 253.757812 349.703125 276.453125 340.203125 298.1875 C 330.78125 319.761719 316.164062 338.84375 297.9375 353.382812 L 225.730469 406.1875 C 225.597656 406.289062 225.441406 406.335938 225.285156 406.335938 " fill-opacity="1" fill-rule="nonzero"/><path fill="#4ada85" d="M 225.285156 129.484375 L 133.917969 149.648438 L 120.363281 234.089844 C 115.523438 270.460938 133.355469 310.683594 164.394531 335.433594 L 225.285156 379.964844 L 225.285156 129.484375 " fill-opacity="1" fill-rule="nonzero"/><path fill="#1ec15f" d="M 225.285156 379.964844 L 286.175781 335.433594 C 317.21875 310.683594 335.046875 270.460938 330.210938 234.089844 L 316.65625 149.648438 L 225.285156 129.484375 L 225.285156 379.964844 " fill-opacity="1" fill-rule="nonzero"/><path fill="#fed101" d="M 247.007812 195.890625 C 247.007812 190.050781 242.242188 185.292969 236.390625 185.292969 L 210.417969 185.292969 C 204.5625 185.292969 199.800781 190.050781 199.800781 195.890625 L 199.800781 248.183594 L 247.007812 248.183594 Z M 184.632812 255.753906 L 184.632812 195.890625 C 184.632812 181.703125 196.199219 170.160156 210.417969 170.160156 L 236.390625 170.160156 C 250.605469 170.160156 262.175781 181.703125 262.175781 195.890625 L 262.175781 255.753906 C 262.175781 259.933594 258.78125 263.320312 254.589844 263.320312 L 192.214844 263.320312 C 188.027344 263.320312 184.632812 259.933594 184.632812 255.753906 " fill-opacity="1" fill-rule="nonzero"/><path fill="#000000" d="M 200.550781 247.433594 L 246.253906 247.433594 L 246.253906 195.894531 C 246.253906 190.464844 241.828125 186.050781 236.386719 186.050781 L 210.417969 186.050781 C 204.976562 186.050781 200.550781 190.464844 200.550781 195.894531 Z M 247.003906 248.9375 L 199.800781 248.9375 C 199.382812 248.9375 199.046875 248.601562 199.046875 248.1875 L 199.046875 195.894531 C 199.046875 189.632812 204.148438 184.542969 210.417969 184.542969 L 236.386719 184.542969 C 242.65625 184.542969 247.757812 189.632812 247.757812 195.894531 L 247.757812 248.1875 C 247.757812 248.601562 247.421875 248.9375 247.003906 248.9375 Z M 210.417969 170.910156 C 196.613281 170.910156 185.382812 182.117188 185.382812 195.894531 L 185.382812 255.753906 C 185.382812 259.511719 188.449219 262.570312 192.214844 262.570312 L 254.589844 262.570312 C 258.355469 262.570312 261.421875 259.511719 261.421875 255.753906 L 261.421875 195.894531 C 261.421875 182.117188 250.191406 170.910156 236.386719 170.910156 Z M 254.589844 264.074219 L 192.214844 264.074219 C 187.617188 264.074219 183.878906 260.34375 183.878906 255.753906 L 183.878906 195.894531 C 183.878906 181.289062 195.785156 169.410156 210.417969 169.410156 L 236.386719 169.410156 C 251.019531 169.410156 262.925781 181.289062 262.925781 195.894531 L 262.925781 255.753906 C 262.925781 260.34375 259.1875 264.074219 254.589844 264.074219 " fill-opacity="1" fill-rule="nonzero"/><path fill="#fed101" d="M 282.632812 234.078125 C 282.679688 235.265625 282.707031 236.460938 282.707031 237.667969 C 282.707031 279.0625 255.960938 312.625 222.96875 312.625 C 189.972656 312.625 163.226562 279.0625 163.226562 237.667969 C 163.226562 236.460938 163.253906 235.265625 163.300781 234.078125 L 282.632812 234.078125 " fill-opacity="1" fill-rule="nonzero"/><path fill="#000000" d="M 164.027344 234.828125 C 163.996094 235.828125 163.980469 236.761719 163.980469 237.660156 C 163.980469 278.582031 190.441406 311.871094 222.96875 311.871094 C 255.496094 311.871094 281.957031 278.582031 281.957031 237.660156 C 281.957031 236.761719 281.941406 235.828125 281.910156 234.828125 Z M 222.96875 313.375 C 189.613281 313.375 162.476562 279.410156 162.476562 237.660156 C 162.476562 236.53125 162.5 235.347656 162.546875 234.046875 C 162.5625 233.640625 162.894531 233.320312 163.300781 233.320312 L 282.636719 233.320312 C 283.042969 233.320312 283.371094 233.640625 283.390625 234.046875 C 283.4375 235.347656 283.460938 236.53125 283.460938 237.660156 C 283.460938 279.410156 256.324219 313.375 222.96875 313.375 " fill-opacity="1" fill-rule="nonzero"/><path fill="#000000" d="M 211.152344 287.605469 L 217.140625 263.132812 C 214.097656 261.277344 212.0625 257.945312 212.0625 254.121094 C 212.0625 248.285156 216.800781 243.558594 222.648438 243.558594 C 228.496094 243.558594 233.234375 248.285156 233.234375 254.121094 C 233.234375 257.945312 231.199219 261.277344 228.15625 263.132812 L 234.144531 287.605469 L 211.152344 287.605469 " fill-opacity="1" fill-rule="nonzero"/><path fill="#ffffff" d="M 644.40625 680.855469 L 266.960938 680.855469 L 339.476562 428.929688 L 716.921875 428.929688 L 644.40625 680.855469 " fill-opacity="1" fill-rule="nonzero"/><g clip-path="url(#c5e6731429)"><path fill="#000000" d="M 267.957031 680.101562 L 643.839844 680.101562 L 715.917969 429.683594 L 340.042969 429.683594 Z M 644.40625 681.609375 L 266.957031 681.609375 C 266.722656 681.609375 266.5 681.496094 266.359375 681.308594 C 266.214844 681.121094 266.171875 680.875 266.234375 680.648438 L 338.75 428.722656 C 338.84375 428.402344 339.140625 428.179688 339.476562 428.179688 L 716.917969 428.179688 C 717.152344 428.179688 717.378906 428.289062 717.519531 428.480469 C 717.660156 428.667969 717.707031 428.914062 717.640625 429.140625 L 645.121094 681.0625 C 645.03125 681.386719 644.734375 681.609375 644.40625 681.609375 " fill-opacity="1" fill-rule="nonzero"/></g><path fill="#fed101" d="M 632.320312 680.1875 L 278.453125 680.1875 L 339.472656 468.199219 L 693.335938 468.199219 L 632.320312 680.1875 " fill-opacity="1" fill-rule="nonzero"/><g clip-path="url(#4ff2e6d8ce)"><path fill="#ffffff" d="M 92.980469 680.859375 L 632.429688 680.859375 C 630.367188 701.078125 613.300781 716.46875 592.933594 716.46875 L 132.476562 716.46875 C 112.105469 716.46875 95.039062 701.078125 92.980469 680.859375 " fill-opacity="1" fill-rule="nonzero"/></g><g clip-path="url(#0925bacbef)"><path fill="#000000" d="M 93.824219 681.609375 C 96.222656 701.109375 112.695312 715.71875 132.480469 715.71875 L 592.929688 715.71875 C 612.714844 715.71875 629.1875 701.109375 631.585938 681.609375 Z M 592.929688 717.222656 L 132.480469 717.222656 C 111.640625 717.222656 94.339844 701.621094 92.230469 680.933594 C 92.210938 680.71875 92.28125 680.507812 92.421875 680.351562 C 92.566406 680.195312 92.769531 680.101562 92.980469 680.101562 L 632.429688 680.101562 C 632.644531 680.101562 632.84375 680.195312 632.984375 680.351562 C 633.128906 680.507812 633.195312 680.71875 633.175781 680.933594 C 631.074219 701.621094 613.765625 717.222656 592.929688 717.222656 " fill-opacity="1" fill-rule="nonzero"/></g><path fill="#ffffff" d="M 512.179688 449.496094 C 512.179688 453.75 508.722656 457.195312 504.457031 457.195312 C 500.195312 457.195312 496.742188 453.75 496.742188 449.496094 C 496.742188 445.242188 500.195312 441.792969 504.457031 441.792969 C 508.722656 441.792969 512.179688 445.242188 512.179688 449.496094 " fill-opacity="1" fill-rule="nonzero"/><path fill="#000000" d="M 504.460938 442.546875 C 500.617188 442.546875 497.492188 445.660156 497.492188 449.496094 C 497.492188 453.328125 500.617188 456.445312 504.460938 456.445312 C 508.300781 456.445312 511.425781 453.328125 511.425781 449.496094 C 511.425781 445.660156 508.300781 442.546875 504.460938 442.546875 Z M 504.460938 457.953125 C 499.789062 457.953125 495.988281 454.15625 495.988281 449.496094 C 495.988281 444.832031 499.789062 441.042969 504.460938 441.042969 C 509.128906 441.042969 512.929688 444.832031 512.929688 449.496094 C 512.929688 454.15625 509.128906 457.953125 504.460938 457.953125 " fill-opacity="1" fill-rule="nonzero"/><path fill="#ffffff" d="M 577.742188 680.859375 L 546.390625 680.859375 L 548.335938 673.589844 L 575.796875 673.589844 L 577.742188 680.859375 " fill-opacity="1" fill-rule="nonzero"/><path fill="#000000" d="M 547.375 680.101562 L 576.765625 680.101562 L 575.222656 674.339844 L 548.914062 674.339844 Z M 577.742188 681.609375 L 546.394531 681.609375 C 546.160156 681.609375 545.941406 681.5 545.796875 681.316406 C 545.65625 681.125 545.605469 680.886719 545.667969 680.660156 L 547.613281 673.394531 C 547.699219 673.0625 548 672.832031 548.335938 672.832031 L 575.804688 672.832031 C 576.140625 672.832031 576.441406 673.066406 576.53125 673.394531 L 578.46875 680.660156 C 578.53125 680.886719 578.484375 681.125 578.339844 681.316406 C 578.195312 681.5 577.980469 681.609375 577.742188 681.609375 " fill-opacity="1" fill-rule="nonzero"/><path fill="#ffffff" d="M 545.109375 680.859375 L 513.761719 680.859375 L 515.703125 673.589844 L 543.167969 673.589844 L 545.109375 680.859375 " fill-opacity="1" fill-rule="nonzero"/><path fill="#000000" d="M 514.742188 680.101562 L 544.128906 680.101562 L 542.585938 674.339844 L 516.28125 674.339844 Z M 545.109375 681.609375 L 513.761719 681.609375 C 513.527344 681.609375 513.304688 681.5 513.167969 681.316406 C 513.019531 681.125 512.976562 680.886719 513.03125 680.660156 L 514.976562 673.394531 C 515.0625 673.066406 515.363281 672.832031 515.707031 672.832031 L 543.167969 672.832031 C 543.511719 672.832031 543.804688 673.066406 543.894531 673.394531 L 545.835938 680.660156 C 545.898438 680.886719 545.847656 681.125 545.707031 681.316406 C 545.5625 681.5 545.34375 681.609375 545.109375 681.609375 " fill-opacity="1" fill-rule="nonzero"/><path fill="#ffffff" d="M 512.480469 680.859375 L 481.128906 680.859375 L 483.070312 673.589844 L 510.535156 673.589844 L 512.480469 680.859375 " fill-opacity="1" fill-rule="nonzero"/><path fill="#000000" d="M 482.109375 680.101562 L 511.496094 680.101562 L 509.957031 674.339844 L 483.652344 674.339844 Z M 512.480469 681.609375 L 481.128906 681.609375 C 480.894531 681.609375 480.675781 681.5 480.53125 681.316406 C 480.390625 681.125 480.339844 680.886719 480.402344 680.660156 L 482.34375 673.394531 C 482.433594 673.066406 482.734375 672.832031 483.070312 672.832031 L 510.535156 672.832031 C 510.875 672.832031 511.171875 673.066406 511.261719 673.394531 L 513.207031 680.660156 C 513.265625 680.886719 513.214844 681.125 513.078125 681.316406 C 512.933594 681.5 512.710938 681.609375 512.480469 681.609375 " fill-opacity="1" fill-rule="nonzero"/><path fill="#ffffff" d="M 479.847656 680.859375 L 448.496094 680.859375 L 450.441406 673.589844 L 477.902344 673.589844 L 479.847656 680.859375 " fill-opacity="1" fill-rule="nonzero"/><path fill="#000000" d="M 449.476562 680.101562 L 478.867188 680.101562 L 477.324219 674.339844 L 451.019531 674.339844 Z M 479.847656 681.609375 L 448.496094 681.609375 C 448.261719 681.609375 448.042969 681.5 447.898438 681.316406 C 447.757812 681.125 447.707031 680.886719 447.769531 680.660156 L 449.714844 673.394531 C 449.800781 673.066406 450.101562 672.832031 450.441406 672.832031 L 477.902344 672.832031 C 478.242188 672.832031 478.539062 673.0625 478.628906 673.394531 L 480.574219 680.660156 C 480.632812 680.886719 480.582031 681.125 480.445312 681.316406 C 480.300781 681.5 480.082031 681.609375 479.847656 681.609375 " fill-opacity="1" fill-rule="nonzero"/><path fill="#ffffff" d="M 447.214844 680.859375 L 415.863281 680.859375 L 417.808594 673.589844 L 445.269531 673.589844 L 447.214844 680.859375 " fill-opacity="1" fill-rule="nonzero"/><path fill="#000000" d="M 416.84375 680.101562 L 446.234375 680.101562 L 444.691406 674.339844 L 418.386719 674.339844 Z M 447.214844 681.609375 L 415.863281 681.609375 C 415.632812 681.609375 415.410156 681.5 415.265625 681.316406 C 415.125 681.125 415.074219 680.886719 415.136719 680.660156 L 417.082031 673.394531 C 417.167969 673.066406 417.46875 672.832031 417.808594 672.832031 L 445.269531 672.832031 C 445.609375 672.832031 445.910156 673.066406 445.996094 673.394531 L 447.941406 680.660156 C 448 680.886719 447.953125 681.125 447.8125 681.316406 C 447.667969 681.5 447.449219 681.609375 447.214844 681.609375 " fill-opacity="1" fill-rule="nonzero"/><path fill="#ffffff" d="M 414.578125 680.859375 L 383.230469 680.859375 L 385.175781 673.589844 L 412.640625 673.589844 L 414.578125 680.859375 " fill-opacity="1" fill-rule="nonzero"/><path fill="#000000" d="M 384.214844 680.101562 L 413.601562 680.101562 L 412.058594 674.339844 L 385.75 674.339844 Z M 414.578125 681.609375 L 383.230469 681.609375 C 383 681.609375 382.777344 681.5 382.632812 681.316406 C 382.492188 681.125 382.445312 680.886719 382.503906 680.660156 L 384.449219 673.394531 C 384.535156 673.066406 384.835938 672.832031 385.175781 672.832031 L 412.640625 672.832031 C 412.976562 672.832031 413.277344 673.066406 413.367188 673.394531 L 415.308594 680.660156 C 415.367188 680.886719 415.320312 681.125 415.175781 681.316406 C 415.035156 681.5 414.816406 681.609375 414.578125 681.609375 " fill-opacity="1" fill-rule="nonzero"/><path fill="#ffffff" d="M 381.945312 680.859375 L 350.601562 680.859375 L 352.542969 673.589844 L 380.003906 673.589844 L 381.945312 680.859375 " fill-opacity="1" fill-rule="nonzero"/><path fill="#000000" d="M 351.582031 680.101562 L 380.96875 680.101562 L 379.429688 674.339844 L 353.117188 674.339844 Z M 381.945312 681.609375 L 350.601562 681.609375 C 350.363281 681.609375 350.144531 681.5 350.003906 681.316406 C 349.859375 681.125 349.8125 680.886719 349.875 680.660156 L 351.816406 673.394531 C 351.90625 673.066406 352.203125 672.832031 352.542969 672.832031 L 380.003906 672.832031 C 380.347656 672.832031 380.644531 673.066406 380.734375 673.394531 L 382.671875 680.660156 C 382.734375 680.886719 382.6875 681.125 382.542969 681.316406 C 382.40625 681.5 382.183594 681.609375 381.945312 681.609375 " fill-opacity="1" fill-rule="nonzero"/><path fill="#ffffff" d="M 349.316406 680.859375 L 317.964844 680.859375 L 319.910156 673.589844 L 347.371094 673.589844 L 349.316406 680.859375 " fill-opacity="1" fill-rule="nonzero"/><path fill="#000000" d="M 318.949219 680.101562 L 348.335938 680.101562 L 346.796875 674.339844 L 320.488281 674.339844 Z M 349.316406 681.609375 L 317.964844 681.609375 C 317.730469 681.609375 317.511719 681.5 317.371094 681.316406 C 317.226562 681.125 317.179688 680.886719 317.238281 680.660156 L 319.183594 673.394531 C 319.273438 673.066406 319.570312 672.832031 319.910156 672.832031 L 347.371094 672.832031 C 347.714844 672.832031 348.011719 673.066406 348.097656 673.394531 L 350.042969 680.660156 C 350.101562 680.886719 350.054688 681.125 349.914062 681.316406 C 349.773438 681.5 349.550781 681.609375 349.316406 681.609375 " fill-opacity="1" fill-rule="nonzero"/><path fill="#ffffff" d="M 316.683594 680.859375 L 285.332031 680.859375 L 287.277344 673.589844 L 314.742188 673.589844 L 316.683594 680.859375 " fill-opacity="1" fill-rule="nonzero"/><path fill="#000000" d="M 286.316406 680.101562 L 315.703125 680.101562 L 314.164062 674.339844 L 287.855469 674.339844 Z M 316.683594 681.609375 L 285.332031 681.609375 C 285.097656 681.609375 284.878906 681.5 284.738281 681.316406 C 284.59375 681.125 284.546875 680.886719 284.605469 680.660156 L 286.550781 673.394531 C 286.640625 673.0625 286.9375 672.832031 287.277344 672.832031 L 314.742188 672.832031 C 315.082031 672.832031 315.378906 673.066406 315.46875 673.394531 L 317.410156 680.660156 C 317.46875 680.886719 317.425781 681.125 317.28125 681.316406 C 317.140625 681.5 316.917969 681.609375 316.683594 681.609375 " fill-opacity="1" fill-rule="nonzero"/><path fill="#ffffff" d="M 284.050781 680.859375 L 252.703125 680.859375 L 254.644531 673.589844 L 282.109375 673.589844 L 284.050781 680.859375 " fill-opacity="1" fill-rule="nonzero"/><path fill="#000000" d="M 253.683594 680.101562 L 283.070312 680.101562 L 281.53125 674.339844 L 255.222656 674.339844 Z M 284.050781 681.609375 L 252.703125 681.609375 C 252.46875 681.609375 252.246094 681.5 252.105469 681.316406 C 251.960938 681.125 251.914062 680.886719 251.972656 680.660156 L 253.917969 673.394531 C 254.007812 673.066406 254.304688 672.832031 254.644531 672.832031 L 282.109375 672.832031 C 282.449219 672.832031 282.746094 673.066406 282.835938 673.394531 L 284.777344 680.660156 C 284.839844 680.886719 284.792969 681.125 284.648438 681.316406 C 284.507812 681.5 284.285156 681.609375 284.050781 681.609375 " fill-opacity="1" fill-rule="nonzero"/><path fill="#ffffff" d="M 251.417969 680.859375 L 220.070312 680.859375 L 222.011719 673.589844 L 249.476562 673.589844 L 251.417969 680.859375 " fill-opacity="1" fill-rule="nonzero"/><path fill="#000000" d="M 221.050781 680.101562 L 250.4375 680.101562 L 248.898438 674.339844 L 222.589844 674.339844 Z M 251.417969 681.609375 L 220.070312 681.609375 C 219.835938 681.609375 219.613281 681.5 219.472656 681.316406 C 219.328125 681.125 219.28125 680.886719 219.34375 680.660156 L 221.285156 673.394531 C 221.375 673.066406 221.671875 672.832031 222.011719 672.832031 L 249.476562 672.832031 C 249.816406 672.832031 250.113281 673.066406 250.203125 673.394531 L 252.144531 680.660156 C 252.207031 680.886719 252.160156 681.125 252.015625 681.316406 C 251.875 681.5 251.652344 681.609375 251.417969 681.609375 " fill-opacity="1" fill-rule="nonzero"/><path fill="#ffffff" d="M 218.785156 680.859375 L 187.4375 680.859375 L 189.378906 673.589844 L 216.84375 673.589844 L 218.785156 680.859375 " fill-opacity="1" fill-rule="nonzero"/><path fill="#000000" d="M 188.417969 680.101562 L 217.804688 680.101562 L 216.265625 674.339844 L 189.957031 674.339844 Z M 218.789062 681.609375 L 187.4375 681.609375 C 187.203125 681.609375 186.980469 681.5 186.839844 681.316406 C 186.699219 681.125 186.648438 680.886719 186.710938 680.660156 L 188.652344 673.394531 C 188.742188 673.066406 189.039062 672.832031 189.378906 672.832031 L 216.84375 672.832031 C 217.183594 672.832031 217.480469 673.0625 217.570312 673.394531 L 219.515625 680.660156 C 219.574219 680.886719 219.527344 681.125 219.382812 681.316406 C 219.242188 681.5 219.019531 681.609375 218.789062 681.609375 " fill-opacity="1" fill-rule="nonzero"/><path fill="#ffffff" d="M 519.761719 565.886719 L 383.058594 565.886719 C 378.453125 565.886719 374.71875 562.152344 374.71875 557.546875 C 374.71875 552.9375 378.453125 549.203125 383.058594 549.203125 L 519.761719 549.203125 C 524.367188 549.203125 528.101562 552.9375 528.101562 557.546875 C 528.101562 562.152344 524.367188 565.886719 519.761719 565.886719 " fill-opacity="1" fill-rule="nonzero"/><path fill="#ffffff" d="M 566.160156 611.429688 L 419.671875 611.429688 C 415.066406 611.429688 411.332031 607.691406 411.332031 603.085938 C 411.332031 598.480469 415.066406 594.742188 419.671875 594.742188 L 566.160156 594.742188 C 570.765625 594.742188 574.5 598.480469 574.5 603.085938 C 574.5 607.691406 570.765625 611.429688 566.160156 611.429688 " fill-opacity="1" fill-rule="nonzero"/><path fill="#000000" d="M 659.511719 251.855469 C 659.511719 261.59375 651.617188 269.492188 641.878906 269.492188 C 632.148438 269.492188 624.253906 261.59375 624.253906 251.855469 C 624.253906 242.121094 632.148438 234.222656 641.878906 234.222656 C 651.617188 234.222656 659.511719 242.121094 659.511719 251.855469 " fill-opacity="1" fill-rule="nonzero"/><path fill="#000000" d="M 687.125 256.847656 C 687.125 266.585938 679.230469 274.484375 669.492188 274.484375 C 659.753906 274.484375 651.863281 266.585938 651.863281 256.847656 C 651.863281 247.109375 659.753906 239.214844 669.492188 239.214844 C 679.230469 239.214844 687.125 247.109375 687.125 256.847656 " fill-opacity="1" fill-rule="nonzero"/><path fill="#000000" d="M 714.734375 261.839844 C 714.734375 271.574219 706.84375 279.472656 697.109375 279.472656 C 687.367188 279.472656 679.472656 271.574219 679.472656 261.839844 C 679.472656 252.097656 687.367188 244.207031 697.109375 244.207031 C 706.84375 244.207031 714.734375 252.097656 714.734375 261.839844 " fill-opacity="1" fill-rule="nonzero"/><path fill="#fda4ff" d="M 642.199219 274.808594 L 628.308594 274.808594 L 628.308594 256.855469 L 642.199219 256.855469 L 642.199219 274.808594 " fill-opacity="1" fill-rule="nonzero"/><path fill="#000000" d="M 642.199219 262.121094 L 642.199219 256.855469 L 628.308594 256.855469 L 628.308594 268.480469 C 629.5625 268.730469 632.058594 269.046875 634.929688 268.097656 C 639.417969 266.617188 641.621094 263.109375 642.199219 262.121094 " fill-opacity="1" fill-rule="nonzero"/><path fill="#fda4ff" d="M 644.539062 252.757812 C 644.539062 259.574219 639.535156 265.101562 633.367188 265.101562 C 627.199219 265.101562 622.199219 259.574219 622.199219 252.757812 C 622.199219 245.933594 627.199219 240.40625 633.367188 240.40625 C 639.535156 240.40625 644.539062 245.933594 644.539062 252.757812 " fill-opacity="1" fill-rule="nonzero"/><path fill="#000000" d="M 633.261719 240.171875 C 632.097656 240.171875 630.980469 240.371094 629.925781 240.726562 C 631.394531 248.320312 636.929688 254.464844 644.171875 256.816406 C 644.539062 255.574219 644.746094 254.25 644.746094 252.867188 C 644.746094 245.859375 639.601562 240.171875 633.261719 240.171875 " fill-opacity="1" fill-rule="nonzero"/><path fill="#ffffff" d="M 638.226562 258.171875 C 637.148438 259.160156 635.757812 259.832031 634.1875 259.992188 C 630.6875 260.347656 627.539062 258.074219 626.667969 254.777344 L 638.226562 258.171875 " fill-opacity="1" fill-rule="nonzero"/><path fill="#000000" d="M 454.40625 546.179688 L 406.210938 553.660156 L 394.046875 475.316406 L 442.246094 467.832031 L 454.40625 546.179688 " fill-opacity="1" fill-rule="nonzero"/><path fill="#4ada85" d="M 356.957031 582.386719 L 376.949219 564.746094 L 392.183594 533.101562 L 423.628906 537.144531 C 430.308594 538 437.039062 536.023438 442.191406 531.6875 L 443.078125 530.941406 C 448.277344 526.566406 450.511719 519.59375 448.816406 513.011719 L 448.390625 511.351562 C 447.550781 508.082031 451.605469 505.832031 453.933594 508.273438 L 498.316406 554.792969 L 482.820312 569.667969 C 474.609375 577.5625 465.230469 584.148438 455.019531 589.199219 L 450.929688 591.222656 C 426.039062 603.535156 399.421875 611.988281 371.988281 616.285156 L 352.300781 619.371094 L 344.164062 612.597656 L 343.847656 611.953125 C 341.5625 607.339844 341.394531 601.964844 343.375 597.214844 L 343.402344 597.148438 C 344.382812 594.804688 345.855469 592.699219 347.714844 590.96875 L 356.957031 582.386719 " fill-opacity="1" fill-rule="nonzero"/><path fill="#000000" d="M 344.769531 612.121094 L 352.523438 618.578125 L 371.871094 615.542969 C 399.261719 611.25 425.75 602.839844 450.597656 590.546875 L 454.691406 588.523438 C 464.84375 583.5 474.132812 576.976562 482.300781 569.128906 L 497.25 554.769531 L 453.390625 508.796875 C 452.398438 507.753906 451.125 507.890625 450.339844 508.328125 C 449.554688 508.765625 448.761719 509.773438 449.121094 511.164062 L 449.546875 512.824219 C 451.296875 519.644531 448.949219 526.980469 443.5625 531.515625 L 442.675781 532.265625 C 437.375 536.71875 430.398438 538.773438 423.535156 537.886719 L 392.628906 533.914062 L 377.625 565.074219 C 377.585938 565.164062 377.523438 565.242188 377.449219 565.308594 L 357.460938 582.949219 L 348.226562 591.519531 C 346.429688 593.1875 345.042969 595.179688 344.101562 597.4375 C 342.171875 602.050781 342.335938 607.199219 344.519531 611.617188 Z M 352.300781 620.121094 C 352.125 620.121094 351.953125 620.066406 351.820312 619.949219 L 343.683594 613.175781 C 343.601562 613.105469 343.539062 613.023438 343.488281 612.929688 L 343.171875 612.285156 C 340.792969 607.476562 340.617188 601.875 342.683594 596.921875 C 343.738281 594.402344 345.25 592.234375 347.203125 590.417969 L 356.445312 581.839844 C 356.449219 581.835938 356.457031 581.828125 356.460938 581.824219 L 376.335938 564.28125 L 391.507812 532.777344 C 391.648438 532.484375 391.960938 532.316406 392.28125 532.355469 L 423.726562 536.398438 C 430.175781 537.222656 436.730469 535.300781 441.707031 531.109375 L 442.59375 530.367188 C 447.539062 526.199219 449.699219 519.464844 448.089844 513.199219 L 447.664062 511.539062 C 447.191406 509.707031 447.957031 507.933594 449.609375 507.015625 C 451.238281 506.109375 453.191406 506.410156 454.480469 507.753906 L 498.859375 554.273438 C 499.144531 554.574219 499.132812 555.050781 498.832031 555.335938 L 483.34375 570.210938 C 475.0625 578.167969 465.648438 584.78125 455.355469 589.871094 L 451.261719 591.898438 C 426.277344 604.257812 399.644531 612.714844 372.105469 617.03125 L 352.417969 620.117188 C 352.378906 620.121094 352.335938 620.121094 352.300781 620.121094 " fill-opacity="1" fill-rule="nonzero"/><path fill="#ffffff" d="M 405.535156 534.816406 L 392.183594 533.101562 L 376.949219 564.746094 L 389.222656 558.675781 C 393.316406 556.648438 396.621094 553.3125 398.601562 549.199219 L 405.535156 534.816406 " fill-opacity="1" fill-rule="nonzero"/><path fill="#000000" d="M 392.628906 533.914062 L 378.578125 563.101562 L 388.890625 558 C 392.816406 556.058594 396.023438 552.816406 397.925781 548.871094 L 404.402344 535.429688 Z M 376.949219 565.496094 C 376.757812 565.496094 376.566406 565.421875 376.421875 565.28125 C 376.195312 565.054688 376.132812 564.707031 376.273438 564.417969 L 391.507812 532.777344 C 391.648438 532.484375 391.960938 532.316406 392.28125 532.355469 L 405.628906 534.070312 C 405.867188 534.101562 406.078125 534.246094 406.191406 534.457031 C 406.308594 534.671875 406.316406 534.925781 406.210938 535.144531 L 399.28125 549.527344 C 397.234375 553.769531 393.78125 557.257812 389.558594 559.351562 L 377.285156 565.421875 C 377.179688 565.472656 377.0625 565.496094 376.949219 565.496094 " fill-opacity="1" fill-rule="nonzero"/><path fill="#ffffff" d="M 430.046875 564.464844 L 433.746094 571.941406 L 454.882812 544.449219 L 462.097656 557.867188 L 474.203125 529.523438 L 478.695312 528.554688 L 501.15625 552.375 L 482.664062 569.949219 C 474.554688 577.65625 465.328125 584.101562 455.296875 589.066406 L 450.929688 591.222656 C 426.039062 603.535156 399.421875 611.988281 371.988281 616.285156 L 352.300781 619.371094 L 344.164062 612.597656 L 353.816406 609.898438 C 389.15625 599.585938 407.589844 577.894531 407.589844 577.894531 L 410.390625 583.957031 L 430.046875 564.464844 " fill-opacity="1" fill-rule="nonzero"/><path fill="#000000" d="M 345.75 612.9375 L 352.519531 618.578125 L 371.871094 615.542969 C 399.261719 611.25 425.75 602.839844 450.597656 590.546875 L 454.960938 588.386719 C 464.933594 583.453125 474.082031 577.066406 482.144531 569.40625 L 500.097656 552.34375 L 478.441406 529.378906 L 474.742188 530.175781 L 462.792969 558.164062 C 462.679688 558.425781 462.421875 558.601562 462.132812 558.617188 C 461.832031 558.625 461.574219 558.476562 461.4375 558.21875 L 454.769531 545.832031 L 434.339844 572.398438 C 434.179688 572.609375 433.933594 572.710938 433.667969 572.691406 C 433.410156 572.667969 433.183594 572.507812 433.070312 572.277344 L 429.835938 565.730469 L 410.917969 584.496094 C 410.746094 584.667969 410.5 584.742188 410.257812 584.699219 C 410.015625 584.65625 409.808594 584.496094 409.707031 584.273438 L 407.386719 579.242188 C 403.496094 583.394531 385.183594 601.53125 354.027344 610.617188 Z M 352.300781 620.121094 C 352.125 620.121094 351.953125 620.066406 351.820312 619.949219 L 343.683594 613.175781 C 343.46875 612.992188 343.371094 612.714844 343.429688 612.441406 C 343.488281 612.164062 343.691406 611.945312 343.964844 611.871094 L 353.609375 609.171875 C 388.324219 599.042969 406.839844 577.625 407.019531 577.410156 C 407.1875 577.210938 407.4375 577.117188 407.695312 577.152344 C 407.949219 577.183594 408.167969 577.347656 408.277344 577.582031 L 410.621094 582.667969 L 429.511719 563.929688 C 429.683594 563.757812 429.925781 563.679688 430.167969 563.722656 C 430.40625 563.757812 430.613281 563.914062 430.71875 564.128906 L 433.882812 570.527344 L 454.285156 543.992188 C 454.4375 543.792969 454.691406 543.683594 454.9375 543.699219 C 455.195312 543.71875 455.417969 543.871094 455.542969 544.097656 L 462.023438 556.132812 L 473.515625 529.226562 C 473.609375 529.003906 473.808594 528.839844 474.046875 528.785156 L 478.539062 527.820312 C 478.800781 527.761719 479.066406 527.847656 479.246094 528.039062 L 501.707031 551.859375 C 501.992188 552.160156 501.976562 552.632812 501.675781 552.921875 L 483.183594 570.492188 C 475.007812 578.261719 465.738281 584.738281 455.628906 589.738281 L 451.261719 591.898438 C 426.277344 604.257812 399.644531 612.714844 372.105469 617.03125 L 352.417969 620.117188 C 352.378906 620.121094 352.335938 620.121094 352.300781 620.121094 " fill-opacity="1" fill-rule="nonzero"/><path fill="#000000" d="M 530.105469 663.726562 L 481.335938 663.726562 L 481.335938 610.9375 L 530.105469 610.9375 L 530.105469 663.726562 " fill-opacity="1" fill-rule="nonzero"/><path fill="#4ada85" d="M 416.703125 659.328125 L 442.449219 652.378906 L 470.132812 630.769531 L 496.527344 648.332031 C 502.132812 652.0625 509.042969 653.273438 515.578125 651.675781 L 516.707031 651.398438 C 523.304688 649.78125 528.398438 644.523438 529.800781 637.871094 L 530.15625 636.195312 C 530.847656 632.890625 535.480469 632.671875 536.484375 635.894531 L 555.644531 697.265625 L 535.164062 703.738281 C 524.296875 707.167969 512.976562 708.910156 501.585938 708.910156 L 497.019531 708.910156 C 469.253906 708.910156 441.644531 704.683594 415.148438 696.378906 L 396.136719 690.410156 L 391.847656 680.734375 L 391.847656 680.015625 C 391.847656 674.867188 394.078125 669.96875 397.957031 666.59375 L 398.015625 666.546875 C 399.929688 664.882812 402.179688 663.644531 404.613281 662.921875 L 416.703125 659.328125 " fill-opacity="1" fill-rule="nonzero"/><path fill="#000000" d="M 396.683594 689.796875 L 415.371094 695.660156 C 441.824219 703.953125 469.292969 708.160156 497.019531 708.160156 L 501.582031 708.160156 C 512.910156 708.160156 524.132812 706.429688 534.933594 703.019531 L 554.699219 696.777344 L 535.765625 636.121094 C 535.335938 634.746094 534.132812 634.3125 533.238281 634.355469 C 532.339844 634.394531 531.183594 634.945312 530.890625 636.347656 L 530.535156 638.027344 C 529.082031 644.917969 523.722656 650.453125 516.882812 652.128906 L 515.753906 652.40625 C 509.03125 654.050781 501.867188 652.796875 496.105469 648.960938 L 470.167969 631.699219 L 442.910156 652.972656 C 442.828125 653.035156 442.738281 653.078125 442.640625 653.105469 L 416.910156 660.054688 L 404.828125 663.644531 C 402.480469 664.339844 400.351562 665.511719 398.503906 667.117188 C 394.726562 670.398438 392.597656 675.082031 392.597656 680.015625 L 392.597656 680.574219 Z M 501.582031 709.667969 L 497.019531 709.667969 C 469.140625 709.667969 441.519531 705.433594 414.921875 697.09375 L 395.90625 691.128906 C 395.703125 691.066406 395.53125 690.914062 395.445312 690.71875 L 391.15625 681.039062 C 391.113281 680.941406 391.09375 680.835938 391.09375 680.734375 L 391.09375 680.015625 C 391.09375 674.644531 393.417969 669.546875 397.464844 666.027344 C 399.527344 664.230469 401.847656 662.960938 404.398438 662.199219 L 416.484375 658.609375 C 416.492188 658.609375 416.5 658.601562 416.503906 658.601562 L 442.097656 651.691406 L 469.667969 630.175781 C 469.921875 629.980469 470.277344 629.964844 470.546875 630.144531 L 496.941406 647.710938 C 502.355469 651.308594 509.078125 652.492188 515.394531 650.941406 L 516.523438 650.664062 C 522.804688 649.128906 527.726562 644.046875 529.058594 637.71875 L 529.414062 636.039062 C 529.808594 634.191406 531.277344 632.9375 533.164062 632.847656 C 535.023438 632.765625 536.648438 633.898438 537.203125 635.671875 L 556.355469 697.046875 C 556.484375 697.441406 556.257812 697.863281 555.867188 697.984375 L 535.386719 704.457031 C 524.4375 707.910156 513.0625 709.667969 501.582031 709.667969 " fill-opacity="1" fill-rule="nonzero"/><path fill="#ffffff" d="M 481.332031 638.226562 L 470.132812 630.769531 L 442.445312 652.378906 L 456.136719 652.378906 C 460.707031 652.378906 465.144531 650.851562 468.746094 648.042969 L 481.332031 638.226562 " fill-opacity="1" fill-rule="nonzero"/><path fill="#000000" d="M 444.632812 651.628906 L 456.136719 651.628906 C 460.519531 651.628906 464.832031 650.144531 468.28125 647.449219 L 480.046875 638.273438 L 470.164062 631.699219 Z M 456.136719 653.128906 L 442.445312 653.128906 C 442.125 653.128906 441.839844 652.929688 441.734375 652.625 C 441.628906 652.320312 441.730469 651.980469 441.980469 651.785156 L 469.667969 630.175781 C 469.921875 629.980469 470.277344 629.960938 470.546875 630.140625 L 481.75 637.597656 C 481.953125 637.730469 482.074219 637.957031 482.085938 638.199219 C 482.089844 638.4375 481.984375 638.671875 481.796875 638.816406 L 469.210938 648.636719 C 465.496094 651.535156 460.847656 653.128906 456.136719 653.128906 " fill-opacity="1" fill-rule="nonzero"/><path fill="#ffffff" d="M 490.160156 675.667969 L 490.160156 684.011719 L 521.292969 668.742188 L 521.816406 683.964844 L 545.230469 663.925781 L 549.6875 665.054688 L 559.265625 696.363281 L 534.894531 703.917969 C 524.207031 707.230469 513.078125 708.910156 501.890625 708.910156 L 497.019531 708.910156 C 469.25 708.910156 441.644531 704.683594 415.148438 696.378906 L 396.132812 690.414062 L 391.84375 680.734375 L 401.691406 682.589844 C 437.9375 689.015625 464.082031 677.75 464.082031 677.75 L 463.898438 684.425781 L 490.160156 675.667969 " fill-opacity="1" fill-rule="nonzero"/><path fill="#000000" d="M 396.683594 689.796875 L 415.371094 695.65625 C 441.824219 703.953125 469.296875 708.160156 497.019531 708.160156 L 501.890625 708.160156 C 513.015625 708.160156 524.042969 706.488281 534.671875 703.195312 L 558.324219 695.863281 L 549.089844 665.679688 L 545.425781 664.753906 L 522.308594 684.539062 C 522.089844 684.726562 521.777344 684.769531 521.515625 684.65625 C 521.25 684.539062 521.074219 684.28125 521.066406 683.992188 L 520.582031 669.929688 L 490.492188 684.6875 C 490.261719 684.800781 489.980469 684.789062 489.765625 684.648438 C 489.542969 684.511719 489.40625 684.269531 489.40625 684.011719 L 489.40625 676.710938 L 464.140625 685.140625 C 463.910156 685.21875 463.652344 685.179688 463.457031 685.03125 C 463.253906 684.886719 463.144531 684.652344 463.152344 684.40625 L 463.300781 678.867188 C 457.972656 680.867188 433.515625 688.996094 401.558594 683.332031 L 393.113281 681.738281 Z M 501.890625 709.667969 L 497.019531 709.667969 C 469.144531 709.667969 441.519531 705.433594 414.921875 697.09375 L 395.910156 691.128906 C 395.703125 691.066406 395.53125 690.914062 395.445312 690.714844 L 391.15625 681.039062 C 391.042969 680.78125 391.082031 680.484375 391.253906 680.265625 C 391.429688 680.042969 391.710938 679.941406 391.984375 679.992188 L 401.832031 681.851562 C 437.433594 688.160156 463.527344 677.175781 463.78125 677.0625 C 464.019531 676.960938 464.289062 676.988281 464.503906 677.128906 C 464.714844 677.273438 464.839844 677.515625 464.832031 677.773438 L 464.683594 683.371094 L 489.925781 674.953125 C 490.152344 674.875 490.40625 674.917969 490.597656 675.054688 C 490.796875 675.199219 490.914062 675.425781 490.914062 675.667969 L 490.914062 682.804688 L 520.960938 668.066406 C 521.191406 667.953125 521.460938 667.964844 521.679688 668.097656 C 521.898438 668.226562 522.039062 668.460938 522.046875 668.714844 L 522.515625 682.378906 L 544.746094 663.355469 C 544.929688 663.195312 545.183594 663.136719 545.417969 663.199219 L 549.871094 664.328125 C 550.128906 664.390625 550.328125 664.582031 550.40625 664.835938 L 559.984375 696.140625 C 560.105469 696.542969 559.882812 696.960938 559.484375 697.082031 L 535.117188 704.632812 C 524.34375 707.972656 513.164062 709.667969 501.890625 709.667969 " fill-opacity="1" fill-rule="nonzero"/><path fill="#8c7bff" d="M 600.152344 361.707031 L 402.273438 361.707031 C 382.796875 361.707031 368.0625 379.328125 371.5 398.5 L 390.167969 502.484375 L 455.09375 502.484375 L 443.816406 428.707031 L 558.417969 428.707031 C 581.46875 428.707031 600.152344 410.019531 600.152344 386.96875 L 600.152344 361.707031 " fill-opacity="1" fill-rule="nonzero"/><path fill="#8c7bff" d="M 646.78125 390.992188 L 656.125 354.136719 L 581.085938 354.136719 L 487.621094 426.257812 C 475.140625 435.882812 467.832031 450.753906 467.832031 466.515625 L 467.832031 621.65625 L 542.328125 621.65625 L 542.328125 477.898438 L 592.3125 428.402344 L 599.066406 428.363281 C 621.621094 428.222656 641.238281 412.863281 646.78125 390.992188 " fill-opacity="1" fill-rule="nonzero"/><path fill="#000000" d="M 468.582031 621.632812 L 541.574219 621.632812 L 541.574219 477.898438 C 541.574219 477.699219 541.660156 477.507812 541.800781 477.367188 L 591.78125 427.871094 C 591.917969 427.730469 592.109375 427.65625 592.304688 427.65625 L 599.0625 427.609375 C 621.265625 427.472656 640.59375 412.339844 646.050781 390.8125 L 655.15625 354.894531 L 581.335938 354.894531 L 488.078125 426.851562 C 475.871094 436.273438 468.582031 451.097656 468.582031 466.519531 Z M 542.332031 623.136719 L 467.828125 623.136719 C 467.414062 623.136719 467.074219 622.800781 467.074219 622.386719 L 467.074219 466.519531 C 467.074219 450.636719 474.585938 435.363281 487.15625 425.664062 L 580.621094 353.546875 C 580.75 353.445312 580.917969 353.390625 581.082031 353.390625 L 656.125 353.390625 C 656.351562 353.390625 656.578125 353.496094 656.714844 353.679688 C 656.859375 353.863281 656.910156 354.097656 656.851562 354.324219 L 647.511719 391.183594 L 646.777344 390.996094 L 647.511719 391.183594 C 641.882812 413.378906 621.964844 428.976562 599.070312 429.113281 L 592.621094 429.15625 L 543.082031 478.210938 L 543.082031 622.386719 C 543.082031 622.800781 542.746094 623.136719 542.332031 623.136719 " fill-opacity="1" fill-rule="nonzero"/><path fill="#fda4ff" d="M 524.804688 316.519531 L 498.804688 307.800781 C 495.15625 306.578125 491.128906 307.589844 488.488281 310.394531 L 482.457031 316.816406 C 480.925781 318.441406 479.765625 320.382812 479.054688 322.507812 L 477.414062 327.398438 C 476.714844 329.488281 477.839844 331.753906 479.933594 332.453125 L 480.457031 332.625 C 482.546875 333.328125 484.808594 332.203125 485.507812 330.109375 L 486.578125 326.914062 C 487.273438 324.84375 488.40625 322.953125 489.902344 321.355469 L 493.03125 318.03125 C 494.40625 316.566406 496.507812 316.035156 498.410156 316.675781 L 522.09375 324.613281 L 524.804688 316.519531 " fill-opacity="1" fill-rule="nonzero"/><path fill="#fda4ff" d="M 515.726562 320.195312 L 500.675781 315.148438 C 497.027344 313.929688 492.996094 314.9375 490.359375 317.742188 L 484.328125 324.160156 C 482.796875 325.792969 481.632812 327.734375 480.925781 329.855469 L 479.28125 334.746094 C 478.585938 336.835938 479.710938 339.097656 481.800781 339.796875 L 482.328125 339.976562 C 484.417969 340.675781 486.679688 339.550781 487.378906 337.460938 L 488.449219 334.265625 C 489.144531 332.195312 490.277344 330.296875 491.773438 328.707031 L 494.902344 325.378906 C 496.277344 323.917969 498.375 323.386719 500.28125 324.027344 L 513.011719 328.292969 L 515.726562 320.195312 " fill-opacity="1" fill-rule="nonzero"/><path fill="#fda4ff" d="M 518.242188 326.800781 L 503.195312 321.757812 C 499.546875 320.53125 495.515625 321.546875 492.878906 324.351562 L 486.84375 330.769531 C 485.3125 332.398438 484.152344 334.339844 483.441406 336.457031 L 481.804688 341.351562 C 481.101562 343.441406 482.230469 345.703125 484.320312 346.40625 L 484.84375 346.578125 C 486.933594 347.28125 489.195312 346.152344 489.898438 344.0625 L 490.96875 340.867188 C 491.664062 338.796875 492.796875 336.902344 494.289062 335.3125 L 497.421875 331.980469 C 498.796875 330.519531 500.898438 329.992188 502.796875 330.628906 L 515.53125 334.894531 L 518.242188 326.800781 " fill-opacity="1" fill-rule="nonzero"/><path fill="#fda4ff" d="M 555.019531 336.3125 L 555.019531 312.832031 L 515.171875 312.871094 L 504.867188 309.691406 L 498.339844 329.183594 L 512.6875 333.996094 L 512.40625 334.324219 C 511.214844 335.6875 509.496094 336.472656 507.6875 336.472656 L 499.644531 336.472656 C 497.5 336.472656 495.757812 338.214844 495.757812 340.355469 L 495.757812 340.621094 C 495.757812 342.761719 497.484375 344.496094 499.625 344.507812 C 503.152344 344.527344 510.035156 344.535156 510.851562 344.484375 C 511.292969 344.460938 511.730469 344.402344 512.164062 344.328125 L 555.019531 336.3125 " fill-opacity="1" fill-rule="nonzero"/><path fill="#fda4ff" d="M 512.164062 344.328125 C 513.464844 344.082031 514.71875 343.59375 515.863281 342.863281 L 526.394531 336.3125 L 555.019531 336.3125 L 512.164062 344.328125 " fill-opacity="1" fill-rule="nonzero"/><path fill="#000000" d="M 486.117188 347.542969 C 485.609375 347.542969 485.101562 347.460938 484.605469 347.292969 L 484.082031 347.117188 C 481.601562 346.285156 480.261719 343.59375 481.089844 341.113281 L 482.730469 336.21875 C 483.472656 334.011719 484.703125 331.949219 486.300781 330.253906 L 492.332031 323.835938 C 495.160156 320.824219 499.523438 319.730469 503.4375 321.039062 L 505.855469 321.851562 C 506.25 321.984375 506.464844 322.410156 506.332031 322.808594 C 506.203125 323.199219 505.773438 323.414062 505.378906 323.28125 L 502.957031 322.46875 C 499.597656 321.339844 495.855469 322.28125 493.429688 324.867188 L 487.394531 331.28125 C 485.949219 332.824219 484.828125 334.691406 484.15625 336.695312 L 482.519531 341.589844 C 481.949219 343.28125 482.867188 345.121094 484.558594 345.691406 L 485.085938 345.867188 C 485.90625 346.140625 486.785156 346.082031 487.558594 345.695312 C 488.332031 345.3125 488.910156 344.644531 489.183594 343.824219 L 490.253906 340.632812 C 490.980469 338.472656 492.1875 336.453125 493.746094 334.796875 L 496.875 331.464844 C 498.445312 329.796875 500.863281 329.1875 503.039062 329.914062 L 512.460938 333.070312 C 512.859375 333.207031 513.070312 333.632812 512.9375 334.027344 C 512.804688 334.421875 512.382812 334.636719 511.984375 334.503906 L 502.558594 331.34375 C 500.9375 330.800781 499.140625 331.253906 497.96875 332.496094 L 494.839844 335.824219 C 493.429688 337.328125 492.335938 339.152344 491.683594 341.109375 L 490.613281 344.304688 C 490.210938 345.503906 489.363281 346.476562 488.226562 347.042969 C 487.5625 347.375 486.84375 347.542969 486.117188 347.542969 " fill-opacity="1" fill-rule="nonzero"/><path fill="#000000" d="M 482.144531 340.667969 C 482.066406 340.667969 481.984375 340.65625 481.90625 340.632812 L 481.5625 340.511719 C 480.359375 340.113281 479.390625 339.261719 478.824219 338.128906 C 478.257812 336.996094 478.167969 335.710938 478.570312 334.507812 L 480.210938 329.617188 C 480.953125 327.40625 482.183594 325.34375 483.78125 323.648438 L 489.816406 317.230469 C 492.644531 314.222656 497 313.121094 500.914062 314.4375 L 505.363281 315.925781 C 505.757812 316.0625 505.96875 316.488281 505.835938 316.878906 C 505.707031 317.273438 505.28125 317.488281 504.882812 317.355469 L 500.4375 315.863281 C 497.074219 314.738281 493.335938 315.679688 490.910156 318.257812 L 484.875 324.675781 C 483.429688 326.21875 482.308594 328.089844 481.636719 330.09375 L 480 334.988281 C 479.722656 335.804688 479.785156 336.6875 480.171875 337.460938 C 480.554688 338.234375 481.21875 338.8125 482.039062 339.085938 L 482.386719 339.203125 C 482.78125 339.335938 482.992188 339.761719 482.859375 340.152344 C 482.753906 340.472656 482.460938 340.667969 482.144531 340.667969 " fill-opacity="1" fill-rule="nonzero"/><path fill="#000000" d="M 506.347656 345.320312 C 505.339844 345.320312 504.265625 345.308594 503.109375 345.292969 C 502.027344 345.277344 500.867188 345.265625 499.625 345.261719 C 497.078125 345.25 495.007812 343.167969 495.007812 340.625 L 495.007812 340.359375 C 495.007812 337.800781 497.085938 335.722656 499.640625 335.722656 L 507.6875 335.722656 C 509.28125 335.722656 510.792969 335.035156 511.835938 333.832031 L 512.125 333.5 C 512.398438 333.1875 512.867188 333.15625 513.183594 333.425781 C 513.496094 333.699219 513.527344 334.175781 513.253906 334.488281 L 512.96875 334.816406 C 511.640625 336.347656 509.710938 337.226562 507.6875 337.226562 L 499.640625 337.226562 C 497.917969 337.226562 496.511719 338.628906 496.511719 340.359375 L 496.511719 340.625 C 496.511719 342.34375 497.910156 343.746094 499.632812 343.757812 C 500.882812 343.757812 502.046875 343.773438 503.128906 343.789062 C 509.386719 343.863281 512.832031 343.90625 515.460938 342.230469 L 526 335.675781 C 526.117188 335.605469 526.253906 335.5625 526.390625 335.5625 L 554.265625 335.5625 L 554.265625 313.65625 L 515.476562 313.621094 C 515.398438 313.621094 515.328125 313.609375 515.253906 313.589844 L 498.589844 308.519531 C 495.207031 307.386719 491.464844 308.328125 489.039062 310.910156 L 483.003906 317.328125 C 481.558594 318.867188 480.441406 320.742188 479.769531 322.746094 L 478.125 327.632812 C 477.558594 329.328125 478.476562 331.167969 480.171875 331.738281 C 480.5625 331.871094 480.777344 332.292969 480.644531 332.6875 C 480.511719 333.085938 480.085938 333.296875 479.691406 333.164062 C 477.210938 332.332031 475.875 329.640625 476.703125 327.15625 L 478.339844 322.265625 C 479.078125 320.058594 480.316406 317.996094 481.910156 316.300781 L 487.945312 309.878906 C 490.773438 306.871094 495.132812 305.777344 499.046875 307.089844 L 515.585938 312.117188 L 555.019531 312.15625 C 555.4375 312.15625 555.769531 312.492188 555.769531 312.90625 L 555.769531 336.316406 C 555.769531 336.730469 555.433594 337.070312 555.019531 337.070312 L 526.609375 337.070312 L 516.261719 343.5 C 513.808594 345.0625 510.8125 345.320312 506.347656 345.320312 " fill-opacity="1" fill-rule="nonzero"/><path fill="#fed101" d="M 601.566406 280.753906 L 579.472656 305.671875 C 576.492188 309.035156 572.214844 310.960938 567.726562 310.960938 L 530.417969 310.960938 L 530.417969 342.742188 L 577.09375 342.722656 C 584.105469 342.71875 590.773438 339.703125 595.40625 334.441406 L 631.367188 293.59375 L 615.488281 279.835938 C 611.382812 276.28125 605.171875 276.6875 601.566406 280.753906 " fill-opacity="1" fill-rule="nonzero"/><path fill="#fed101" d="M 661.585938 376.191406 L 571.609375 368.863281 L 571.914062 358.019531 L 593.195312 358.019531 L 596.175781 295.15625 C 596.875 282.808594 605.910156 273.417969 617.914062 273.417969 L 644.902344 273.417969 L 659.511719 276.875 L 661.585938 376.191406 " fill-opacity="1" fill-rule="nonzero"/><path fill="#000000" d="M 498.335938 359.566406 L 406.066406 359.566406 L 362.671875 285.226562 L 454.941406 285.226562 L 498.335938 359.566406 " fill-opacity="1" fill-rule="nonzero"/><path fill="#000000" d="M 406.0625 368.960938 L 571.960938 368.960938 L 571.960938 359.570312 L 406.0625 359.570312 L 406.0625 368.960938 " fill-opacity="1" fill-rule="nonzero"/><path fill="#ffffff" d="M 423.582031 324.921875 C 422.613281 321.382812 424.554688 317.761719 427.921875 316.835938 C 431.292969 315.910156 434.808594 318.035156 435.78125 321.578125 C 436.753906 325.121094 434.808594 328.742188 431.441406 329.664062 C 428.074219 330.589844 424.554688 328.464844 423.582031 324.921875 " fill-opacity="1" fill-rule="nonzero"/><path fill="#fda4ff" d="M 584.175781 333.921875 L 549.699219 333.90625 L 549.699219 362.109375 L 584.175781 362.117188 L 584.175781 333.921875 " fill-opacity="1" fill-rule="nonzero"/><path fill="#fda4ff" d="M 518.746094 342.679688 L 515.683594 345.984375 C 514.136719 347.65625 513.980469 350.183594 515.3125 352.027344 L 518.320312 356.203125 L 525.597656 348.074219 L 571.351562 348.074219 L 571.351562 338.503906 L 528.304688 338.503906 C 524.675781 338.503906 521.207031 340.015625 518.746094 342.679688 " fill-opacity="1" fill-rule="nonzero"/><path fill="#fda4ff" d="M 520.152344 336.707031 L 518.421875 338.578125 C 516.875 340.25 516.722656 342.773438 518.050781 344.621094 L 521.054688 348.792969 L 528.34375 340.667969 L 571.351562 340.667969 L 571.351562 334.007812 L 564.054688 334.007812 C 561.03125 334.007812 555.644531 331.09375 548.828125 331.09375 L 533 331.09375 C 528.125 331.09375 523.46875 333.125 520.152344 336.707031 " fill-opacity="1" fill-rule="nonzero"/><path fill="#fda4ff" d="M 517.675781 349.113281 L 514.003906 353.078125 C 512.457031 354.75 512.304688 357.277344 513.632812 359.128906 L 516.636719 363.296875 L 523.921875 355.171875 L 552.265625 355.171875 L 552.265625 345.597656 L 525.730469 345.597656 C 522.671875 345.597656 519.753906 346.871094 517.675781 349.113281 " fill-opacity="1" fill-rule="nonzero"/><path fill="#fda4ff" d="M 519.015625 356.089844 L 515.1875 360.226562 C 513.765625 361.761719 513.625 364.082031 514.847656 365.78125 C 516.488281 368.054688 519.8125 368.234375 521.679688 366.144531 L 523.761719 363.824219 C 524.757812 362.714844 526.171875 362.082031 527.65625 362.082031 L 551.460938 362.082031 C 557.683594 362.082031 562.0625 361.726562 568.058594 352.5 L 527.214844 352.507812 C 524.101562 352.507812 521.128906 353.804688 519.015625 356.089844 " fill-opacity="1" fill-rule="nonzero"/><path fill="#000000" d="M 515.308594 352.789062 C 515.078125 352.789062 514.84375 352.675781 514.699219 352.472656 C 513.164062 350.339844 513.347656 347.402344 515.125 345.476562 L 518.191406 342.171875 C 520.789062 339.359375 524.472656 337.75 528.304688 337.75 L 536.726562 337.75 C 537.140625 337.75 537.476562 338.089844 537.476562 338.503906 C 537.476562 338.917969 537.140625 339.257812 536.726562 339.257812 L 528.304688 339.257812 C 524.894531 339.257812 521.609375 340.691406 519.292969 343.195312 L 516.234375 346.5 C 514.933594 347.898438 514.804688 350.042969 515.921875 351.589844 C 516.164062 351.929688 516.089844 352.398438 515.75 352.640625 C 515.617188 352.738281 515.460938 352.789062 515.308594 352.789062 " fill-opacity="1" fill-rule="nonzero"/><path fill="#000000" d="M 514.804688 361.503906 C 514.570312 361.503906 514.34375 361.390625 514.195312 361.191406 L 513.023438 359.5625 C 511.492188 357.4375 511.671875 354.496094 513.453125 352.570312 L 517.121094 348.605469 C 519.332031 346.210938 522.472656 344.84375 525.730469 344.84375 L 536.804688 344.84375 C 537.222656 344.84375 537.558594 345.179688 537.558594 345.59375 C 537.558594 346.011719 537.222656 346.34375 536.804688 346.34375 L 525.730469 346.34375 C 522.890625 346.34375 520.15625 347.542969 518.230469 349.625 L 514.554688 353.589844 C 513.257812 354.992188 513.128906 357.136719 514.246094 358.683594 L 515.414062 360.3125 C 515.660156 360.648438 515.582031 361.117188 515.242188 361.359375 C 515.109375 361.457031 514.957031 361.503906 514.804688 361.503906 " fill-opacity="1" fill-rule="nonzero"/><path fill="#000000" d="M 518.414062 368.355469 C 518.320312 368.355469 518.230469 368.351562 518.136719 368.347656 C 516.570312 368.265625 515.152344 367.488281 514.238281 366.222656 C 512.808594 364.238281 512.980469 361.503906 514.632812 359.714844 L 518.464844 355.578125 C 520.714844 353.152344 523.902344 351.753906 527.214844 351.753906 L 536.433594 351.753906 C 536.847656 351.753906 537.183594 352.089844 537.183594 352.507812 C 537.183594 352.917969 536.847656 353.257812 536.433594 353.257812 L 527.214844 353.257812 C 524.320312 353.257812 521.535156 354.476562 519.570312 356.597656 L 515.738281 360.738281 C 514.566406 362.003906 514.445312 363.941406 515.453125 365.335938 C 516.101562 366.234375 517.109375 366.789062 518.214844 366.84375 C 519.328125 366.917969 520.382812 366.464844 521.121094 365.640625 L 523.195312 363.320312 C 524.332031 362.054688 525.960938 361.332031 527.660156 361.332031 L 553.984375 361.332031 C 558.3125 361.332031 562.351562 359.1875 564.789062 355.59375 C 565.023438 355.253906 565.488281 355.160156 565.832031 355.398438 C 566.175781 355.632812 566.265625 356.097656 566.035156 356.441406 C 563.320312 360.445312 558.816406 362.832031 553.984375 362.832031 L 527.660156 362.832031 C 526.386719 362.832031 525.167969 363.378906 524.320312 364.324219 L 522.242188 366.644531 C 521.261719 367.742188 519.878906 368.355469 518.414062 368.355469 " fill-opacity="1" fill-rule="nonzero"/><path fill="#000000" d="M 584.175781 362.878906 L 544.898438 362.878906 C 544.480469 362.878906 544.140625 362.542969 544.140625 362.125 C 544.140625 361.707031 544.480469 361.371094 544.898438 361.371094 L 583.425781 361.371094 L 583.425781 334.679688 L 565.417969 334.679688 C 562.566406 334.679688 560.34375 334.066406 557.992188 333.414062 C 555.191406 332.644531 552.289062 331.84375 547.773438 331.84375 L 532.996094 331.84375 C 528.347656 331.84375 523.867188 333.804688 520.707031 337.21875 L 518.972656 339.089844 C 517.851562 340.300781 517.582031 342.050781 518.285156 343.542969 C 518.460938 343.914062 518.296875 344.363281 517.921875 344.539062 C 517.542969 344.714844 517.097656 344.558594 516.917969 344.175781 C 515.957031 342.132812 516.332031 339.730469 517.871094 338.066406 L 519.601562 336.195312 C 523.042969 332.476562 527.929688 330.339844 532.996094 330.339844 L 547.773438 330.339844 C 552.496094 330.339844 555.628906 331.203125 558.390625 331.96875 C 560.738281 332.613281 562.765625 333.171875 565.417969 333.171875 L 584.175781 333.171875 C 584.589844 333.171875 584.929688 333.507812 584.929688 333.925781 L 584.929688 362.125 C 584.929688 362.542969 584.589844 362.878906 584.175781 362.878906 " fill-opacity="1" fill-rule="nonzero"/><path fill="#fed101" d="M 646.683594 273.414062 L 644.574219 273.414062 L 631.144531 326.375 C 630.277344 329.816406 627.175781 332.222656 623.632812 332.21875 L 574.769531 332.179688 L 574.742188 365.96875 L 632.628906 366.015625 C 646.289062 366.023438 658.210938 356.761719 661.570312 343.519531 L 671.320312 305.085938 C 675.398438 289.023438 663.257812 273.414062 646.683594 273.414062 " fill-opacity="1" fill-rule="nonzero"/><path fill="#000000" d="M 632.65625 366.765625 C 632.648438 366.765625 632.636719 366.765625 632.632812 366.765625 L 574.746094 366.722656 C 574.542969 366.722656 574.355469 366.636719 574.210938 366.5 C 574.070312 366.359375 573.992188 366.167969 573.992188 365.964844 L 574.019531 332.175781 C 574.019531 331.761719 574.355469 331.425781 574.769531 331.425781 C 574.769531 331.425781 574.769531 331.425781 574.773438 331.425781 L 623.632812 331.464844 C 623.632812 331.464844 623.636719 331.464844 623.640625 331.464844 C 626.84375 331.464844 629.628906 329.300781 630.421875 326.1875 L 637.042969 300.0625 C 637.144531 299.660156 637.554688 299.417969 637.953125 299.523438 C 638.355469 299.625 638.601562 300.035156 638.496094 300.433594 L 631.878906 326.558594 C 630.917969 330.335938 627.535156 332.96875 623.640625 332.96875 C 623.636719 332.96875 623.632812 332.96875 623.632812 332.96875 L 575.527344 332.933594 L 575.5 365.214844 L 632.632812 365.257812 C 632.636719 365.257812 632.652344 365.257812 632.65625 365.257812 C 645.972656 365.257812 657.5625 356.25 660.839844 343.332031 L 670.59375 304.898438 C 672.476562 297.46875 670.859375 289.738281 666.15625 283.6875 C 661.445312 277.640625 654.351562 274.167969 646.6875 274.167969 L 642.644531 274.167969 C 642.226562 274.167969 641.890625 273.832031 641.890625 273.417969 C 641.890625 273 642.226562 272.660156 642.644531 272.660156 L 646.6875 272.660156 C 654.820312 272.660156 662.347656 276.34375 667.34375 282.765625 C 672.335938 289.183594 674.054688 297.386719 672.050781 305.269531 L 662.300781 343.703125 C 658.855469 357.285156 646.664062 366.765625 632.65625 366.765625 " fill-opacity="1" fill-rule="nonzero"/><path fill="#fda4ff" d="M 221.539062 529.964844 L 142.242188 482.390625 L 177.800781 423.882812 L 257.019531 471.527344 L 221.539062 529.964844 " fill-opacity="1" fill-rule="nonzero"/><path fill="#000000" d="M 198.476562 480.507812 C 198.191406 480.507812 197.925781 480.34375 197.800781 480.085938 L 182.363281 448.117188 C 182.183594 447.746094 182.339844 447.296875 182.714844 447.113281 C 183.089844 446.933594 183.539062 447.09375 183.71875 447.464844 L 198.941406 478.984375 L 234.117188 477.703125 C 234.550781 477.683594 234.882812 478.015625 234.898438 478.425781 C 234.914062 478.84375 234.589844 479.191406 234.171875 479.207031 L 198.503906 480.507812 C 198.496094 480.507812 198.484375 480.507812 198.476562 480.507812 " fill-opacity="1" fill-rule="nonzero"/><path fill="#020202" d="M 183.5 457.464844 L 198.082031 480.445312 L 199.128906 479.667969 L 182.964844 445.972656 C 181.097656 449.628906 181.300781 454 183.5 457.464844 " fill-opacity="1" fill-rule="nonzero"/><path fill="#000000" d="M 143.277344 482.132812 L 221.285156 528.933594 L 256.058594 471.71875 L 178.054688 424.914062 Z M 221.539062 530.71875 C 221.40625 530.71875 221.273438 530.683594 221.152344 530.609375 L 141.855469 483.03125 C 141.683594 482.925781 141.5625 482.761719 141.511719 482.566406 C 141.464844 482.371094 141.496094 482.167969 141.601562 481.996094 L 177.15625 423.492188 C 177.371094 423.140625 177.832031 423.027344 178.1875 423.238281 L 257.480469 470.816406 C 257.652344 470.917969 257.777344 471.085938 257.824219 471.28125 C 257.871094 471.476562 257.839844 471.683594 257.738281 471.855469 L 222.179688 530.355469 C 222.039062 530.589844 221.792969 530.71875 221.539062 530.71875 " fill-opacity="1" fill-rule="nonzero"/><path fill="#8c7bff" d="M 205.460938 612.910156 L 126.074219 642.785156 L 96.203125 563.390625 L 175.589844 533.519531 L 205.460938 612.910156 " fill-opacity="1" fill-rule="nonzero"/><path fill="#ffffff" d="M 173.058594 579.789062 C 177.84375 592.511719 171.410156 606.699219 158.691406 611.488281 C 145.972656 616.273438 131.78125 609.839844 126.996094 597.121094 C 122.210938 584.398438 128.640625 570.210938 141.359375 565.421875 C 154.082031 560.636719 168.273438 567.070312 173.058594 579.789062 " fill-opacity="1" fill-rule="nonzero"/><path fill="#ffffff" d="M 158.808594 585.148438 L 141.289062 582.257812 L 147.539062 598.878906 Z M 158.808594 585.148438 " fill-opacity="1" fill-rule="nonzero"/><path fill="#000000" d="M 142.449219 583.210938 L 147.789062 597.394531 L 157.402344 585.679688 Z M 147.539062 599.628906 C 147.5 599.628906 147.460938 599.625 147.417969 599.621094 C 147.152344 599.578125 146.929688 599.394531 146.835938 599.144531 L 140.582031 582.523438 C 140.488281 582.269531 140.535156 581.984375 140.703125 581.777344 C 140.878906 581.570312 141.140625 581.46875 141.410156 581.511719 L 158.933594 584.410156 C 159.195312 584.449219 159.417969 584.632812 159.511719 584.882812 C 159.605469 585.136719 159.558594 585.421875 159.390625 585.628906 L 148.125 599.355469 C 147.976562 599.53125 147.761719 599.628906 147.539062 599.628906 " fill-opacity="1" fill-rule="nonzero"/><g clip-path="url(#aecad3d0b8)"><path fill="#8c7bff" d="M 528.78125 94.214844 C 487.066406 94.214844 453.125 128.15625 453.125 169.875 C 453.125 211.589844 487.066406 245.53125 528.78125 245.53125 C 570.5 245.53125 604.4375 211.589844 604.4375 169.875 C 604.4375 128.15625 570.5 94.214844 528.78125 94.214844 Z M 528.78125 247.035156 C 486.234375 247.035156 451.621094 212.421875 451.621094 169.875 C 451.621094 127.328125 486.234375 92.710938 528.78125 92.710938 C 571.328125 92.710938 605.9375 127.328125 605.9375 169.875 C 605.9375 212.421875 571.328125 247.035156 528.78125 247.035156 " fill-opacity="1" fill-rule="nonzero"/></g><g clip-path="url(#276fc32a74)"><path fill="#8c7bff" d="M 528.78125 94.214844 C 507.710938 94.214844 490.570312 128.15625 490.570312 169.875 C 490.570312 211.589844 507.710938 245.53125 528.78125 245.53125 C 549.855469 245.53125 566.992188 211.589844 566.992188 169.875 C 566.992188 128.15625 549.855469 94.214844 528.78125 94.214844 Z M 528.78125 247.035156 C 506.882812 247.035156 489.0625 212.421875 489.0625 169.875 C 489.0625 127.328125 506.882812 92.710938 528.78125 92.710938 C 550.683594 92.710938 568.496094 127.328125 568.496094 169.875 C 568.496094 212.421875 550.683594 247.035156 528.78125 247.035156 " fill-opacity="1" fill-rule="nonzero"/></g><path fill="#8c7bff" d="M 528.78125 135.042969 C 509.242188 135.042969 490.597656 127.722656 476.289062 114.4375 C 475.988281 114.15625 475.964844 113.679688 476.25 113.375 C 476.53125 113.066406 477.007812 113.050781 477.3125 113.335938 C 491.34375 126.359375 509.621094 133.535156 528.78125 133.535156 C 547.941406 133.535156 566.214844 126.359375 580.25 113.332031 C 580.554688 113.046875 581.027344 113.066406 581.3125 113.371094 C 581.59375 113.675781 581.578125 114.148438 581.273438 114.433594 C 566.964844 127.722656 548.324219 135.042969 528.78125 135.042969 " fill-opacity="1" fill-rule="nonzero"/><path fill="#8c7bff" d="M 476.800781 226.621094 C 476.59375 226.621094 476.394531 226.539062 476.25 226.378906 C 475.964844 226.074219 475.984375 225.597656 476.289062 225.316406 C 490.597656 212.027344 509.238281 204.710938 528.78125 204.710938 C 548.320312 204.710938 566.960938 212.027344 581.269531 225.3125 C 581.574219 225.597656 581.59375 226.074219 581.308594 226.378906 C 581.027344 226.683594 580.550781 226.699219 580.246094 226.417969 C 566.214844 213.386719 547.9375 206.210938 528.78125 206.210938 C 509.617188 206.210938 491.34375 213.386719 477.308594 226.417969 C 477.167969 226.550781 476.984375 226.621094 476.800781 226.621094 " fill-opacity="1" fill-rule="nonzero"/><path fill="#8c7bff" d="M 605.191406 170.621094 L 452.375 170.621094 C 451.960938 170.621094 451.625 170.289062 451.625 169.871094 C 451.625 169.457031 451.960938 169.117188 452.375 169.117188 L 605.191406 169.117188 C 605.609375 169.117188 605.941406 169.457031 605.941406 169.871094 C 605.941406 170.289062 605.609375 170.621094 605.191406 170.621094 " fill-opacity="1" fill-rule="nonzero"/><g clip-path="url(#e549b5e3c8)"><path fill="#8c7bff" d="M 528.78125 247.035156 C 528.367188 247.035156 528.03125 246.703125 528.03125 246.285156 L 528.03125 93.464844 C 528.03125 93.046875 528.367188 92.710938 528.78125 92.710938 C 529.195312 92.710938 529.535156 93.046875 529.535156 93.464844 L 529.535156 246.285156 C 529.535156 246.703125 529.195312 247.035156 528.78125 247.035156 " fill-opacity="1" fill-rule="nonzero"/></g></svg>