<svg xmlns="http://www.w3.org/2000/svg" xmlns:xlink="http://www.w3.org/1999/xlink" width="1080" zoomAndPan="magnify" viewBox="0 0 810 809.999993" height="1080" preserveAspectRatio="xMidYMid meet" version="1.0"><defs><clipPath id="111c570f28"><path d="M 190 81 L 621 81 L 621 729 L 190 729 Z M 190 81 " clip-rule="nonzero"/></clipPath></defs><g clip-path="url(#111c570f28)"><path fill="#040606" d="M 572.941406 366.019531 L 555.539062 256.296875 C 555.539062 256.28125 555.539062 256.25 555.539062 256.222656 L 532.367188 110.136719 L 527.863281 87.496094 C 527.441406 85.308594 525.996094 83.445312 524.015625 82.425781 C 522.019531 81.40625 519.65625 81.347656 517.632812 82.3125 C 517.339844 82.457031 486.589844 96.21875 409.113281 97.933594 L 404.945312 97.933594 C 327.308594 96.21875 296.542969 82.457031 296.265625 82.324219 C 294.242188 81.394531 291.894531 81.421875 289.882812 82.414062 C 287.886719 83.417969 286.457031 85.296875 286.019531 87.480469 L 257.367188 254.898438 C 256.988281 255.859375 256.816406 256.820312 256.859375 257.808594 L 237.429688 371.375 L 190.300781 711.394531 C 189.746094 715.328125 192.457031 718.980469 196.375 719.59375 C 199.117188 720.015625 263.839844 730.078125 313.988281 730.078125 C 317.820312 730.078125 321.566406 730.019531 325.167969 729.886719 C 328.882812 729.742188 331.898438 726.84375 332.175781 723.144531 C 332.410156 720.089844 355.101562 420.449219 406.925781 327.238281 C 458.738281 420.433594 481.460938 720.089844 481.675781 723.144531 C 481.96875 726.84375 484.984375 729.742188 488.6875 729.886719 C 491.542969 729.988281 494.472656 730.035156 497.460938 730.035156 C 547.699219 730.035156 611.664062 716.59375 614.359375 716.023438 C 618.105469 715.222656 620.597656 711.6875 620.074219 707.898438 Z M 522.324219 142.875 L 535.355469 223.9375 L 488.863281 151.886719 C 500.464844 149.6875 511.976562 146.789062 522.324219 142.875 Z M 414.230469 142 L 414.230469 112.324219 C 469.742188 110.675781 501.382812 103.121094 515.226562 98.691406 L 519.949219 128.109375 C 483.515625 143.0625 426.222656 143.703125 413.910156 143.644531 C 414.023438 143.089844 414.230469 142.582031 414.230469 142 Z M 295.785156 112.992188 L 298.640625 98.691406 C 312.488281 103.105469 344.128906 110.664062 399.667969 112.324219 L 399.667969 142.015625 C 399.667969 142.597656 399.875 143.121094 400.003906 143.660156 C 381.058594 143.515625 327.351562 141.589844 294.460938 126.460938 C 294.167969 126.332031 293.847656 126.34375 293.542969 126.242188 Z M 291.09375 140.820312 C 301.191406 145.144531 312.664062 148.421875 324.425781 150.867188 C 324.160156 151.160156 323.828125 151.363281 323.609375 151.699219 L 277.085938 223.808594 Z M 385.445312 281.339844 L 398.3125 313.347656 C 397.527344 314.558594 396.753906 315.765625 396.390625 316.390625 C 345.222656 402.042969 321.917969 668.800781 318.1875 715.488281 C 277.800781 715.878906 224.738281 708.964844 205.734375 706.253906 L 251.84375 373.605469 L 270.964844 260.210938 L 335.878906 159.589844 C 337.175781 157.582031 337.234375 155.207031 336.460938 153.125 C 363.046875 157.464844 388.753906 158.148438 400.484375 158.207031 C 404.683594 202.519531 403.75 263.605469 388.59375 272.296875 C 385.429688 274.117188 384.089844 277.976562 385.445312 281.339844 Z M 415.117188 158.222656 C 419.898438 158.234375 428.65625 158.148438 439.660156 157.550781 C 443.785156 183.964844 449.949219 254.257812 430.757812 273.886719 C 427.433594 277.277344 413.195312 279.929688 403.546875 277.496094 C 421.605469 252.144531 417.59375 185.117188 415.117188 158.222656 Z M 495.726562 715.472656 C 491.980469 668.730469 468.664062 402.042969 417.507812 316.40625 C 416.75 315.140625 414.332031 311.453125 413.558594 310.304688 C 413.324219 309.96875 412.816406 309.808594 412.480469 309.519531 L 405.078125 291.082031 C 405.367188 291.15625 405.617188 291.34375 405.9375 291.390625 C 407.570312 291.605469 409.1875 291.59375 410.746094 291.722656 C 421.820312 292.65625 435.375 290.019531 441.191406 284.09375 C 467.890625 256.820312 456.757812 172.929688 454.277344 156.546875 C 461.039062 155.964844 468.183594 155.179688 475.511719 154.128906 C 475.121094 155.949219 475.410156 157.929688 476.503906 159.617188 L 541.109375 259.730469 L 558.527344 368.1875 L 604.710938 703.136719 C 586.667969 706.589844 535.71875 715.777344 495.726562 715.472656 Z M 495.726562 715.472656 " fill-opacity="1" fill-rule="nonzero"/></g><path fill="#040606" d="M 430.378906 116.285156 C 424.53125 116.285156 419.765625 121.015625 419.765625 126.839844 C 419.765625 132.695312 424.519531 137.457031 430.378906 137.457031 C 436.175781 137.457031 440.914062 132.695312 440.914062 126.839844 C 440.898438 121.015625 436.175781 116.285156 430.378906 116.285156 Z M 430.378906 116.285156 " fill-opacity="1" fill-rule="nonzero"/></svg>