<svg xmlns="http://www.w3.org/2000/svg" xmlns:xlink="http://www.w3.org/1999/xlink" width="1080" zoomAndPan="magnify" viewBox="0 0 810 809.999993" height="1080" preserveAspectRatio="xMidYMid meet" version="1.0"><rect x="-81" width="972" fill="#ffffff" y="-80.999999" height="971.999992" fill-opacity="1"/><rect x="-81" width="972" fill="#ffffff" y="-80.999999" height="971.999992" fill-opacity="1"/><rect x="-81" width="972" fill="#ffffff" y="-80.999999" height="971.999992" fill-opacity="1"/><path fill="#040606" d="M 211.59375 696.683594 C 218.019531 605.9375 275.980469 495.964844 331.359375 438.050781 L 478.558594 438.050781 C 533.941406 495.964844 591.902344 605.9375 598.269531 696.683594 Z M 310.757812 218.730469 C 316.152344 211.097656 324.300781 205.875 333.425781 204.09375 C 351.847656 199.90625 376.523438 205.816406 390.355469 234.917969 C 395.003906 242.953125 405.277344 245.710938 413.367188 241.058594 C 415.949219 239.625 418.074219 237.445312 419.566406 234.917969 C 433.394531 205.816406 458.074219 199.90625 476.496094 204.09375 C 485.617188 205.875 493.769531 211.097656 499.105469 218.730469 L 501.800781 229.523438 C 500.941406 253.457031 496.582031 277.164062 488.832031 299.835938 C 477.8125 334.160156 471.5 369.746094 470.007812 405.734375 L 339.96875 405.734375 C 338.417969 369.746094 332.105469 334.160156 321.089844 299.835938 C 313.339844 277.164062 308.980469 253.457031 308.0625 229.523438 Z M 501.972656 415.378906 C 502.605469 379.160156 508.632812 343.226562 519.878906 308.847656 C 528.773438 282.730469 533.59375 255.46875 534.285156 227.914062 C 534.226562 220.742188 532.621094 213.625 529.519531 207.082031 L 501.457031 94.695312 C 499.277344 86.027344 490.496094 80.804688 481.890625 82.929688 C 473.164062 85.109375 467.945312 93.835938 470.125 102.5 C 470.125 102.5 470.125 102.5 470.125 102.558594 L 487.914062 173.847656 C 486.480469 173.445312 485.101562 172.929688 483.609375 172.585938 C 454.628906 165.925781 424.328125 175.855469 404.988281 198.414062 C 385.59375 175.855469 355.292969 165.925781 326.3125 172.585938 C 324.820312 172.929688 323.441406 173.445312 322.007812 173.847656 L 339.855469 102.558594 C 341.976562 93.890625 336.753906 85.109375 328.089844 82.929688 C 319.425781 80.804688 310.644531 86.027344 308.519531 94.695312 C 308.464844 94.695312 308.464844 94.695312 308.464844 94.695312 L 280.402344 207.082031 C 277.300781 213.625 275.753906 220.742188 275.695312 227.914062 C 276.328125 255.46875 281.203125 282.730469 290.042969 308.847656 C 301.289062 343.226562 307.316406 379.160156 307.945312 415.378906 C 244.878906 481.5 178.710938 611.449219 178.710938 712.8125 C 178.710938 721.769531 185.941406 729 194.835938 729 C 194.835938 729 194.894531 729 194.894531 729 L 615.085938 729 C 623.980469 729 631.210938 721.769531 631.210938 712.871094 C 631.210938 712.8125 631.210938 712.8125 631.210938 712.8125 C 631.210938 611.449219 565.042969 481.5 501.972656 415.378906 " fill-opacity="1" fill-rule="nonzero"/></svg>